<svg width="196" height="36" viewBox="0 0 196 36" fill="none" xmlns="http://www.w3.org/2000/svg">
<path d="M37.3281 7.09049C36.9978 7.52851 36.5573 7.96654 36.1169 8.51406C35.6764 9.06159 35.236 9.82813 34.9056 10.7042C34.6854 11.2517 34.2449 12.0182 33.8045 13.1133C33.364 14.2084 32.8135 15.4129 32.2629 16.727C31.7124 18.0411 31.1618 19.4646 30.6112 20.8882C30.0607 22.3118 29.5101 23.7354 28.9596 25.0494C28.7393 25.4875 28.5191 26.035 28.1888 26.692C27.8584 27.3491 27.5281 28.1156 27.1978 28.8821C27.0876 29.1011 26.9775 29.2106 26.8674 29.4297C26.7573 29.6487 26.5371 29.6487 26.427 29.6487C26.2067 29.6487 25.9865 29.5392 25.7663 29.3201C25.6562 29.1011 25.5461 28.7726 25.436 28.5536C25.3258 28.2251 25.2157 27.7871 24.9955 27.2395C24.7753 26.692 24.5551 26.035 24.2247 25.2684C24.0045 24.8304 23.7843 24.1734 23.564 23.4068C23.2337 22.6403 22.9034 21.6547 22.573 20.7787C22.2427 19.7931 21.8022 18.8076 21.4719 17.822C21.0315 16.8365 20.7011 15.851 20.2607 14.9749L14.3146 32.0578C14.3146 32.1673 14.2045 32.2768 14.0944 32.3863L13.764 32.8243C13.6539 32.9338 13.5438 33.0433 13.5438 33.1528C13.4337 33.2624 13.4337 33.2624 13.4337 33.2624C13.3236 33.2624 13.2135 33.3719 12.9933 33.3719H12.4427C12.2225 33.3719 12.1124 33.2624 12.0022 33.0434C11.8921 32.9338 11.8921 32.6053 12.0022 32.1673C12.0022 31.7293 12.1124 31.2913 12.1124 30.7437C12.1124 30.1962 12.1124 29.5392 12.1124 28.8821C12.0022 28.2251 11.8921 27.5681 11.6719 26.8015C11.3416 26.1445 10.9011 25.0494 10.3506 23.6259C9.8 22.2023 9.02921 20.5597 8.25843 18.6981C7.48764 16.946 6.71685 15.0844 5.94607 13.1133C5.17528 11.2517 4.40449 9.49963 3.74382 7.85704C3.41348 7.20001 3.19326 6.65248 2.97303 6.21445C2.75281 5.77643 2.53258 5.55741 2.31236 5.22889C2.09213 5.00988 1.87191 4.79088 1.54157 4.79088C1.21124 4.68137 0.880899 4.57187 0.330337 4.57187C0.220225 4.57187 0.110112 4.57186 0.110112 4.46236C0.110112 4.46236 0 4.35285 0 4.24335C0 4.13384 0.110112 4.02433 0.110112 3.91483C0.220225 3.80532 0.220225 3.69581 0.330337 3.58631C0.440449 3.3673 0.660674 3.25779 1.10112 3.25779C1.87191 3.25779 2.53258 3.3673 3.30337 3.58631C4.07416 3.80532 4.84494 4.02433 5.61573 4.35284C6.38652 4.57186 7.1573 4.90039 7.81798 5.1194C8.58876 5.33841 9.24944 5.4479 9.91011 5.4479C10.1303 5.4479 10.2404 5.55742 10.2404 5.88593C10.3506 6.21445 10.3506 6.32396 10.3506 6.43346C10.3506 6.65247 10.2404 6.65248 10.0202 6.76198C9.24944 6.87149 8.80899 6.87149 8.58876 6.98099C8.36854 7.0905 8.25843 7.30951 8.36854 7.52852C8.36854 7.74753 8.47865 7.96653 8.58876 8.18554C8.69888 8.51406 8.80899 8.84259 8.9191 9.1711C9.35955 10.3757 9.8 11.5802 10.3506 12.7848C10.9011 14.0989 11.3416 15.3034 11.8921 16.6175C12.4427 17.9316 12.8831 19.1361 13.4337 20.3407C13.9843 21.5452 14.4247 22.6403 14.8652 23.7354C14.8652 23.8449 14.9753 23.8449 15.0854 23.9544C15.1955 23.9544 15.3056 23.9544 15.3056 23.9544C15.5258 23.5164 15.7461 22.8593 16.0764 21.8738C16.4067 20.8882 16.7371 19.9027 17.0674 18.8076C17.3978 17.7126 17.7281 16.6175 18.1685 15.5224C18.4989 14.4274 18.8292 13.5513 19.0494 12.8943C19.0494 12.7848 19.1596 12.5658 19.1596 12.4563C19.1596 12.2373 19.1596 12.1277 19.0494 12.0182C18.8292 11.7992 18.609 11.5802 18.4989 11.3612C18.2787 11.1422 18.1685 11.0327 18.0584 10.8137C17.9483 10.5947 17.8382 10.4852 17.8382 10.2662C17.8382 10.0471 17.8382 9.82814 17.9483 9.39011L21.8022 10.4852C22.6831 10.7042 23.3438 11.1422 23.7843 11.9087C24.2247 12.5658 24.6652 13.4418 24.9955 14.5369C25.3258 15.6319 25.6562 16.8365 26.0966 18.2601C26.427 19.6837 26.9775 21.2167 27.7483 22.8593C27.7483 22.9688 27.8584 22.9688 27.9685 22.9688C28.0787 22.9688 28.0787 22.8593 28.1888 22.8593L28.8494 21.2167C29.1798 20.4502 29.5101 19.5741 29.9506 18.5886C30.391 17.603 30.7213 16.508 31.1618 15.4129C31.6022 14.3179 31.9326 13.2228 32.373 12.2373C32.7034 11.2517 33.0337 10.2662 33.2539 9.49963C33.4742 8.73309 33.5843 8.07604 33.6944 7.63801C33.6944 7.419 33.6944 7.2 33.4742 6.98099C33.364 6.76198 33.1438 6.65246 32.9236 6.54296C32.4831 6.43345 32.1528 6.43346 31.9326 6.43346C31.7124 6.43346 31.4921 6.32395 31.2719 6.32395C31.1618 6.32395 31.0517 6.21444 31.0517 5.99543C31.0517 5.77642 31.1618 5.55742 31.1618 5.33841C31.2719 5.11939 31.2719 5.00988 31.4921 5.00988C31.6022 5.00988 31.8225 5.00989 32.0427 5.1194C32.373 5.1194 32.7034 5.2289 33.0337 5.33841C33.4742 5.44791 33.8045 5.44791 34.2449 5.55741C34.6854 5.55741 35.0157 5.66693 35.236 5.66693C36.227 5.66693 36.9978 5.66693 37.4382 5.66693C37.8787 5.66693 38.209 5.77642 38.3191 5.77642C38.4292 5.88593 38.4292 5.99544 38.209 6.21445C37.9888 6.43347 37.6584 6.76197 37.3281 7.09049ZM42.0629 5.1194C42.2831 5.2289 42.5034 5.44791 42.6135 5.66693C42.7236 5.99544 42.8337 6.10494 42.9438 6.10494C43.3843 6.54296 43.6045 6.87148 43.8247 7.09049C44.0449 7.3095 44.2652 7.41901 44.4854 7.41901C44.8157 7.41901 45.036 7.3095 45.036 7.09049C45.036 6.87148 45.1461 6.76197 45.3663 6.54296C45.5865 6.32395 45.6966 6.10495 45.9169 5.88593C46.1371 5.66692 46.2472 5.44791 46.4674 5.33841C46.6876 5.2289 46.7978 5.1194 46.7978 5.1194C47.018 5.1194 47.1281 5.00989 47.1281 4.79088C47.1281 4.46236 47.1281 4.24334 47.018 4.13384C46.9079 4.02433 46.7978 3.91483 46.5775 3.91483C46.5775 3.91483 46.4674 3.80533 46.3573 3.69582C46.2472 3.58631 46.027 3.3673 45.9169 3.14829C45.6966 2.92928 45.5865 2.81977 45.4764 2.60076C45.3663 2.38175 45.2562 2.27224 45.2562 2.27224C45.1461 1.94373 45.036 1.83423 44.8157 1.83423H44.2652C44.1551 1.83423 44.0449 1.94372 43.9348 2.16273C43.9348 2.16273 43.8247 2.27224 43.6045 2.49125C43.3843 2.71026 43.2742 2.81977 43.0539 3.03878C42.8337 3.25779 42.6135 3.4768 42.3933 3.58631C42.173 3.80532 42.0629 3.80532 41.9528 3.80532C41.8427 3.80532 41.7326 3.91484 41.6225 4.02434C41.5124 4.13385 41.5124 4.35285 41.5124 4.46236C41.5124 4.79087 41.7326 5.00989 42.0629 5.1194ZM52.7438 31.8388C52.8539 31.9483 52.8539 32.0578 52.8539 32.1673L52.7438 32.8243C52.7438 32.9338 52.6337 33.0433 52.4135 33.1528C52.3034 33.2624 51.973 33.3719 51.6427 33.4814C51.3124 33.5909 50.8719 33.7004 50.5416 33.8099C50.2112 33.9194 49.6607 34.0289 49.2202 34.1384C48.7798 34.2479 48.3393 34.2479 47.8989 34.2479C47.6786 34.2479 47.5685 33.9194 47.3483 33.3719C47.1281 32.8243 46.9079 32.1673 46.6876 31.4008C46.4674 30.6342 46.3573 29.8677 46.1371 29.1011C46.027 28.3346 45.9169 27.7871 45.8067 27.349C45.3663 27.5681 45.036 27.7871 44.4854 28.0061C44.0449 28.2251 43.4944 28.4441 43.0539 28.6631C42.6135 28.8821 42.173 28.9916 41.8427 29.1011C41.5124 29.2106 41.2921 29.3201 41.182 29.3201C40.4112 29.3201 39.7506 28.9916 38.9798 28.3346C38.7596 28.1156 38.5393 27.7871 38.3191 27.349C38.0989 26.911 37.9888 26.254 37.9888 25.4874C37.9888 25.2684 38.0989 24.9399 38.3191 24.7209C38.5393 24.3924 38.7596 24.1734 38.9798 23.8449C39.3101 23.5163 39.5303 23.2973 39.8607 23.0783C40.191 22.8593 40.4112 22.6403 40.7416 22.5308C41.6225 22.0928 42.3933 21.6548 43.2742 21.2167C44.0449 20.7787 45.036 20.4502 45.9169 20.3407C45.9169 20.1217 45.9169 20.0122 45.9169 19.9027C45.9169 19.7932 45.9169 19.7931 45.9169 19.6836V19.0266C45.9169 18.4791 45.8067 17.9315 45.8067 17.4935C45.6966 17.0555 45.5865 16.8365 45.3663 16.727C45.2562 16.508 44.9258 16.3985 44.5955 16.289C44.2652 16.1795 43.8247 16.07 43.2742 16.07C43.0539 16.1795 42.9438 16.289 42.7236 16.3985C42.5034 16.508 42.3933 16.6175 42.173 16.727C42.173 16.946 42.173 17.0555 42.173 17.2745C42.173 17.4935 42.173 17.7125 42.173 18.1506C42.173 18.3696 42.0629 18.5886 41.9528 18.5886L39.6404 19.2456C39.4202 19.3551 39.3101 19.3551 39.0899 19.3551C38.9798 19.3551 38.8697 19.3551 38.7596 19.3551C38.4292 19.3551 38.209 19.2456 38.0989 19.1361C37.9888 18.9171 38.0989 18.6981 38.209 18.4791C38.3191 18.2601 38.4292 17.9316 38.6494 17.7126C38.8697 17.384 38.9798 17.165 39.0899 17.0555C39.4202 16.6175 39.6404 16.1795 39.9708 15.9605C40.3011 15.7414 40.6315 15.4129 40.9618 15.3034C41.2921 15.0844 41.7326 14.8654 42.0629 14.7559C42.3933 14.5369 42.8337 14.4274 43.3843 14.0989C43.6045 13.9894 43.7146 13.8798 43.8247 13.6608C43.9348 13.4418 44.0449 13.3323 44.1551 13.1133C44.2652 12.8943 44.2652 12.7848 44.3753 12.5658C44.3753 12.4563 44.4854 12.3468 44.4854 12.3468C44.4854 12.3468 44.5955 12.4563 44.5955 12.5658C44.5955 12.6753 44.7056 12.8943 44.7056 13.0038C44.8157 13.2228 44.9258 13.4418 45.036 13.6608C45.2562 13.8798 45.4764 14.0989 45.8067 14.2084C46.3573 14.4274 46.9079 14.6464 47.3483 14.8654C47.8989 15.0844 48.2292 15.3034 48.6697 15.6319C49 15.9605 49.2202 16.3985 49.3303 16.727C49.4404 17.0555 49.4404 17.384 49.4404 17.7126C49.6607 18.2601 49.7708 20.1217 49.6607 23.2973C49.5506 26.473 49.6607 28.7726 49.991 30.0867C50.3214 31.4008 50.5416 32.0578 50.6517 32.0578C50.8719 32.0578 51.2022 32.0578 51.5326 31.9483C51.8629 31.8388 52.0831 31.7293 52.1933 31.7293C52.5236 31.6198 52.6337 31.6198 52.7438 31.8388ZM46.1371 23.2973C46.1371 22.8593 46.027 22.6403 45.9169 22.6403C45.4764 22.7498 45.1461 22.7498 44.9258 22.8593C44.7056 22.9688 44.4854 23.0783 44.3753 23.0783C44.2652 23.1878 44.1551 23.2973 44.0449 23.4068C43.9348 23.5164 43.8247 23.6259 43.6045 23.7354C43.4944 23.8449 43.3843 23.9544 43.2742 24.1734C43.164 24.3924 43.164 24.6114 43.164 24.9399C43.164 25.2684 43.164 25.4874 43.0539 25.816C42.9438 26.1445 42.9438 26.3635 42.9438 26.473C42.9438 26.692 42.9438 26.8015 43.0539 26.911C43.164 27.0205 43.2742 27.13 43.6045 27.13C43.7146 27.13 43.9348 27.13 44.2652 27.0205C44.5955 26.911 44.9258 26.8015 45.3663 26.5825C45.6966 26.3635 45.9169 26.1445 46.027 25.816C46.027 25.7065 46.027 25.4874 46.027 25.2684C46.027 25.0494 46.027 24.8304 46.027 24.5019C46.027 24.2829 46.027 23.9544 46.027 23.7354V23.2973H46.1371ZM76.1977 5.1194C76.418 5.2289 76.6382 5.44791 76.7483 5.66693C76.8584 5.99544 76.9685 6.10494 77.0787 6.10494C77.5191 6.54296 77.7393 6.87148 77.9595 7.09049C78.1798 7.3095 78.4 7.41901 78.6202 7.41901C78.9506 7.41901 79.1708 7.3095 79.1708 7.09049C79.1708 6.87148 79.2809 6.76197 79.5011 6.54296C79.7213 6.32395 79.8315 6.10495 80.0517 5.88593C80.2719 5.66692 80.382 5.44791 80.6022 5.33841C80.8225 5.2289 80.9326 5.1194 80.9326 5.1194C81.1528 5.1194 81.2629 5.00989 81.2629 4.79088C81.2629 4.46236 81.2629 4.24334 81.1528 4.13384C81.0427 4.02433 80.9326 3.91483 80.7123 3.91483C80.7123 3.91483 80.6022 3.80533 80.4921 3.69582C80.382 3.58631 80.1618 3.3673 80.0517 3.14829C79.8315 2.92928 79.7213 2.81977 79.6112 2.60076C79.5011 2.38175 79.391 2.27224 79.391 2.27224C79.2809 1.94373 79.1708 1.83423 78.9506 1.83423H78.4C78.2899 1.83423 78.1798 1.94372 78.0697 2.16273C78.0697 2.16273 77.9595 2.27224 77.7393 2.49125C77.5191 2.71026 77.409 2.81977 77.1888 3.03878C76.9685 3.25779 76.7483 3.4768 76.5281 3.58631C76.3079 3.80532 76.1977 3.80532 76.0876 3.80532C75.9775 3.80532 75.8674 3.91484 75.7573 4.02434C75.6472 4.13385 75.6472 4.35285 75.6472 4.46236C75.6472 4.79087 75.8674 5.00989 76.1977 5.1194ZM80.4921 14.3179H80.382C79.9416 14.4274 79.6112 14.5369 79.1708 14.5369C78.7303 14.6464 78.2899 14.6464 77.8494 14.6464C77.409 14.6464 76.9685 14.7559 76.5281 14.7559C76.0876 14.7559 75.7573 14.8654 75.427 14.9749C75.3168 14.9749 75.3168 15.0844 75.2067 15.0844C75.2067 15.1939 75.0966 15.3034 74.9865 15.6319V15.7414C74.8764 15.6319 74.7663 15.4129 74.6562 15.3034C74.436 15.0844 74.2157 14.9749 73.9955 14.8654C73.7753 14.7559 73.4449 14.6464 73.2247 14.6464C73.0045 14.6464 72.7843 14.6464 72.564 14.7559C72.3438 14.8654 72.2337 14.9749 72.1236 15.0844C71.9034 15.1939 71.6831 15.4129 71.3528 15.7414C71.0225 15.9605 70.6921 16.289 70.3618 16.508C70.0315 16.727 69.7011 17.0555 69.4809 17.2745C69.1506 17.4935 68.9303 17.7125 68.8202 17.822C68.8202 17.384 68.8202 17.165 68.8202 16.8365C68.8202 16.6175 68.8202 16.3985 68.8202 16.1795C68.8202 15.9605 68.8202 15.8509 68.8202 15.6319C68.8202 15.4129 68.8202 15.3034 68.9303 14.9749C68.9303 14.8654 68.9303 14.6464 68.8202 14.5369C68.7101 14.4274 68.6 14.3179 68.4899 14.3179C68.3798 14.3179 68.2697 14.3179 68.0494 14.4274C67.8292 14.6464 67.4989 14.6464 67.0584 14.7559C66.618 14.7559 66.2876 14.7559 65.7371 14.8654C65.2966 14.8654 64.8562 14.9749 64.4157 14.9749C63.9753 14.9749 63.5348 15.1939 63.2045 15.4129V15.5224C63.0944 15.4129 62.9843 15.3034 62.8742 15.1939C62.6539 14.9749 62.4337 14.8654 62.2135 14.7559C61.9933 14.6464 61.6629 14.5369 61.4427 14.5369C61.2225 14.5369 61.0022 14.5369 60.782 14.6464C60.5618 14.7559 60.4517 14.8654 60.3416 14.9749C60.1213 15.0844 59.9011 15.3034 59.5708 15.6319C59.2405 15.8509 58.9101 16.1795 58.5798 16.3985C58.2494 16.6175 57.9191 16.946 57.6989 17.165C57.3685 17.384 57.1483 17.603 57.0382 17.7126C57.0382 17.2745 57.0382 17.0555 57.0382 16.727C57.0382 16.508 57.0382 16.289 57.0382 16.07C57.0382 15.851 57.0382 15.7414 57.0382 15.5224C57.0382 15.3034 57.0382 15.1939 57.1483 14.8654C57.1483 14.7559 57.1483 14.5369 57.0382 14.4274C56.9281 14.3179 56.818 14.2084 56.7079 14.2084C56.5978 14.2084 56.4876 14.2084 56.2674 14.3179C56.0472 14.5369 55.7169 14.5369 55.2764 14.6464C54.836 14.6464 54.5056 14.6464 53.9551 14.7559C53.5146 14.7559 53.0742 14.8654 52.6337 14.8654C52.1933 14.8654 51.7528 15.0844 51.4225 15.3034C51.4225 15.4129 51.4225 15.6319 51.5326 15.8509C51.6427 16.07 51.8629 16.289 51.973 16.289C52.3034 16.3985 52.5236 16.508 52.7438 16.727C52.964 16.946 53.0742 17.165 53.1843 17.4935C53.2944 17.822 53.2944 18.0411 53.2944 18.3696C53.2944 18.6981 53.2944 18.9171 53.2944 19.2456V22.0928C53.2944 24.7209 53.2944 26.254 53.1843 26.692C53.1843 26.8015 53.1843 27.0205 53.1843 27.2395C53.1843 27.5681 53.0742 27.7871 52.964 28.1156C52.8539 28.4441 52.6337 28.6631 52.4135 28.9916C52.1933 29.2106 51.8629 29.4296 51.3124 29.5392L51.7528 30.1962C51.6427 30.4152 51.7528 30.5247 51.973 30.5247C52.0831 30.5247 52.3034 30.5247 52.5236 30.5247C52.8539 30.5247 53.2944 30.4152 54.0652 30.1962C54.2854 30.1962 54.5056 29.9772 54.836 29.7582C55.1663 29.5392 55.4966 29.2106 55.827 28.8821C56.1573 28.5536 56.3775 28.1156 56.5978 27.7871C56.818 27.3491 56.9281 26.911 56.9281 26.473C56.818 26.3635 56.818 26.1445 56.9281 25.9255C56.9281 25.7065 57.0382 25.3779 57.0382 24.9399V20.5597C57.0382 19.9027 57.0382 19.4646 57.1483 19.2456C57.2584 19.0266 57.2584 18.8076 57.4787 18.6981C57.6989 18.4791 58.0292 18.2601 58.3596 18.1506C58.6899 18.0411 59.0202 17.9316 59.3506 17.9316C59.5708 17.9316 59.791 18.0411 60.1213 18.2601C60.4517 18.4791 60.6719 18.5886 60.782 18.8076C61.0022 19.0266 61.2225 19.1361 61.4427 19.1361C61.6629 19.1361 61.9933 19.0266 62.3236 18.8076C62.4337 18.6981 62.5438 18.5886 62.6539 18.4791C62.764 18.2601 62.9843 18.1506 63.0944 17.9316C63.2045 17.7125 63.4247 17.4935 63.5348 17.2745C63.6449 17.0555 63.7551 16.8365 63.7551 16.6175C63.7551 16.508 63.7551 16.508 63.7551 16.3985C63.8652 16.3985 63.8652 16.508 63.9753 16.508C64.3056 16.6175 64.5258 16.727 64.7461 16.946C64.9663 17.165 65.0764 17.384 65.1865 17.7126C65.2966 18.0411 65.2966 18.2601 65.2966 18.5886C65.2966 18.9171 65.2966 19.1361 65.2966 19.4646V22.3118C65.2966 24.9399 65.2966 26.473 65.1865 26.911C65.1865 27.0205 65.1865 27.2395 65.1865 27.4586C65.1865 27.7871 65.0764 28.0061 64.9663 28.3346C64.8562 28.6631 64.636 28.8821 64.4157 29.2106C64.1955 29.4297 63.8652 29.6487 63.3146 29.7582L63.7551 30.4152C63.6449 30.6342 63.7551 30.7437 63.9753 30.7437C64.0854 30.7437 64.3056 30.7437 64.5258 30.7437C64.8562 30.7437 65.2966 30.6342 66.0674 30.4152C66.2876 30.4152 66.5079 30.1962 66.8382 29.9772C67.1685 29.7582 67.4989 29.4297 67.8292 29.1011C68.1596 28.7726 68.3798 28.3346 68.6 28.0061C68.8202 27.5681 68.9303 27.13 68.9303 26.692C68.8202 26.5825 68.8202 26.3635 68.9303 26.1445C68.9303 25.9255 69.0405 25.5969 69.0405 25.1589V20.7787C69.0405 20.1217 69.0404 19.6836 69.1506 19.4646C69.2607 19.2456 69.2607 19.0266 69.4809 18.9171C69.7011 18.6981 70.0315 18.4791 70.3618 18.3696C70.6921 18.2601 71.0225 18.1506 71.3528 18.1506C71.573 18.1506 71.7933 18.2601 72.1236 18.4791C72.4539 18.6981 72.6742 18.8076 72.7843 19.0266C73.0045 19.2456 73.2247 19.3551 73.4449 19.3551C73.6652 19.3551 73.9955 19.2456 74.3258 19.0266C74.436 18.9171 74.5461 18.8076 74.6562 18.6981C74.7663 18.4791 74.9865 18.3696 75.0966 18.1506C75.2067 17.9316 75.427 17.7125 75.5371 17.4935C75.6472 17.2745 75.7573 17.0555 75.7573 16.8365C75.7573 16.6175 75.7573 16.508 75.6472 16.289C75.9775 16.3985 76.1977 16.508 76.418 16.6175C76.6382 16.727 76.8584 16.946 76.9685 17.0555C77.0786 17.165 77.1888 17.384 77.1888 17.4935C77.1888 17.603 77.1888 17.7126 77.1888 17.7126L77.2989 21.4357C77.2989 21.9833 77.2989 22.6403 77.2989 23.2973C77.2989 23.9544 77.2989 24.6114 77.2989 25.1589C77.2989 25.7065 77.2989 26.254 77.1888 26.692C77.1888 27.13 77.1888 27.4586 77.0787 27.5681C77.0787 28.1156 76.8584 28.4441 76.6382 28.8821C76.418 29.2106 75.9775 29.4296 75.427 29.5392C75.2067 29.5392 75.2067 29.6487 75.2067 29.7582V30.1962C75.2067 30.4152 75.2067 30.5247 75.3168 30.6342C75.3168 30.7437 75.427 30.8532 75.6472 30.8532C75.6472 30.8532 75.7573 30.8532 76.0876 30.8532C76.3079 30.8532 76.6382 30.8532 76.9685 30.7437C77.2989 30.7437 77.6292 30.6342 78.0697 30.5247C78.4 30.4152 78.7303 30.1962 79.0607 30.0867C79.2809 29.9772 79.5011 29.7582 79.7213 29.5392C79.9416 29.3201 80.1618 28.9916 80.382 28.6631C80.6022 28.2251 80.8225 27.7871 80.9326 27.0205C81.0427 26.3635 81.1528 25.4874 81.1528 24.3924V19.9027C81.1528 19.0266 81.1528 18.1506 81.1528 17.165C81.1528 16.289 81.1528 15.5224 81.2629 14.9749C81.2629 14.7559 81.2629 14.5369 81.1528 14.5369C80.6022 14.2084 80.6022 14.2084 80.4921 14.3179ZM97.4494 18.6981C97.8899 19.5741 98 20.5597 98 21.8738C98 22.7498 97.8899 23.6259 97.5595 24.2829C97.3393 24.9399 97.009 25.597 96.6786 26.035C96.3483 26.473 96.018 26.911 95.6876 27.2395C95.3573 27.5681 95.027 27.6776 94.9168 27.7871C94.1461 28.2251 93.3753 28.5536 92.4944 28.8821C91.6135 29.2106 90.7326 29.3201 89.9618 29.3201C89.5213 29.3201 89.0809 29.3202 88.5303 29.2106C87.9798 29.1011 87.4292 28.9916 86.9888 28.7726C86.4382 28.5536 85.9977 28.2251 85.4472 27.8966C85.0067 27.5681 84.5663 27.13 84.1258 26.692C83.6854 26.035 83.2449 25.3779 83.0247 24.5019C82.8045 23.6259 82.6944 22.8593 82.6944 22.0928C82.6944 21.3262 82.8045 20.5597 83.1348 19.7932C83.3551 19.0266 83.7955 18.2601 84.236 17.7126C84.8966 16.8365 85.6674 16.1795 86.4382 15.5224C87.209 14.9749 87.9798 14.4274 88.8607 13.8799C89.0809 13.7703 89.191 13.6608 89.3011 13.4418C89.4112 13.2228 89.5213 13.0038 89.6315 12.8943C89.7416 12.6753 89.7416 12.5658 89.8517 12.3468C89.8517 12.2373 89.9618 12.1278 89.9618 12.1278C89.9618 12.1278 90.0719 12.2373 90.0719 12.3468C90.0719 12.4563 90.182 12.6753 90.182 12.7848C90.2921 13.0038 90.4022 13.2228 90.5124 13.4418C90.7326 13.6608 90.9528 13.8798 91.2831 13.9893C92.0539 14.4274 92.9348 14.7559 93.7056 15.1939C94.4764 15.6319 95.2472 16.07 95.9079 16.6175C96.5685 17.165 97.1191 17.8221 97.4494 18.6981ZM94.0359 23.1878C94.0359 22.7498 94.0359 22.2023 93.9258 21.6547C93.8157 21.1072 93.8157 20.5597 93.5955 20.0122C93.4854 19.4646 93.2652 18.9171 93.0449 18.4791C92.8247 17.9316 92.4944 17.603 92.164 17.165C91.8337 16.8365 91.3933 16.508 90.9528 16.289C90.5124 16.07 89.9618 15.9605 89.5213 15.9605C89.0809 15.9605 88.7506 15.9605 88.5303 16.1795C88.3101 16.3985 87.9798 16.6175 87.6494 16.946C87.4292 17.384 87.209 17.822 87.0989 18.5886C86.9888 19.3551 86.8786 20.1217 86.8786 21.1072C86.8786 22.3118 86.9888 23.2973 87.3191 24.2829C87.6494 25.2684 87.9798 25.9255 88.4202 26.473C88.9708 27.0205 89.4112 27.4585 89.8517 27.6776C90.2921 27.8966 90.7326 28.0061 91.173 28.0061C91.5034 28.0061 91.7236 28.0061 92.0539 27.8966C92.3843 27.7871 92.6045 27.6776 92.7146 27.4586C93.0449 27.13 93.3753 26.5825 93.5955 26.035C93.9258 25.1589 94.0359 24.2829 94.0359 23.1878ZM87.6494 5.1194C87.8697 5.2289 88.0899 5.44791 88.2 5.66693C88.3101 5.99544 88.4202 6.10494 88.5303 6.10494C88.9708 6.54296 89.191 6.87148 89.4112 7.09049C89.6315 7.3095 89.8517 7.41901 90.0719 7.41901C90.4022 7.41901 90.6225 7.3095 90.6225 7.09049C90.6225 6.87148 90.7326 6.76197 90.9528 6.54296C91.173 6.32395 91.2831 6.10495 91.5034 5.88593C91.7236 5.66692 91.8337 5.44791 92.0539 5.33841C92.2742 5.2289 92.3843 5.1194 92.3843 5.1194C92.6045 5.1194 92.7146 5.00989 92.7146 4.79088C92.7146 4.46236 92.7146 4.24334 92.6045 4.13384C92.4944 4.02433 92.3843 3.91483 92.164 3.91483C92.164 3.91483 92.0539 3.80533 91.9438 3.69582C91.8337 3.47681 91.6135 3.3673 91.5034 3.14829C91.2831 2.92928 91.173 2.81977 91.0629 2.60076C90.9528 2.38175 90.8427 2.27224 90.8427 2.27224C90.7326 1.94373 90.6225 1.83423 90.4022 1.83423H89.9618C89.8517 1.83423 89.7416 1.94372 89.6315 2.16273C89.6315 2.16273 89.5213 2.27224 89.3011 2.49125C89.0809 2.71026 88.9708 2.81977 88.7506 3.03878C88.5303 3.25779 88.3101 3.4768 88.0899 3.58631C87.8697 3.80532 87.7595 3.80532 87.6494 3.80532C87.5393 3.80532 87.4292 3.91484 87.3191 4.02434C87.209 4.13385 87.209 4.35285 87.209 4.46236C87.209 4.79087 87.3191 5.00989 87.6494 5.1194ZM97.3393 11.2517H99.4314H111.654C112.094 11.2517 112.315 11.0327 112.315 10.4852C112.315 10.2662 112.204 10.0471 112.094 9.93764C111.984 9.82814 111.764 9.71863 111.654 9.71863H99.4314H97.3393H83.6854H81.5933H76.3079H73.555H64.5258H62.1034H52.1933H50.3213H37.1079C36.8876 9.71863 36.6674 9.82814 36.5573 9.93764C36.4472 10.0471 36.3371 10.2662 36.3371 10.4852C36.3371 10.7042 36.4472 10.9232 36.5573 11.0327C36.6674 11.1422 36.8876 11.2517 37.1079 11.2517H50.3213H52.1933H62.1034H64.5258H73.555H76.3079H81.5933H83.6854H97.3393ZM110.443 17.384C110.553 17.165 110.663 16.946 110.663 16.727C110.663 16.508 110.553 16.289 110.443 16.07C110.333 15.851 110.112 15.6319 109.892 15.4129C109.672 15.1939 109.452 15.0844 109.231 14.9749C109.011 14.8654 108.681 14.7559 108.461 14.7559C108.24 14.7559 108.02 14.7559 107.8 14.8654C107.58 14.9749 107.47 15.0844 107.36 15.1939C107.139 15.3034 106.919 15.5224 106.589 15.8509C106.258 16.07 105.928 16.3985 105.598 16.6175C105.267 16.8365 104.937 17.165 104.717 17.384C104.387 17.603 104.166 17.8221 104.056 17.9316C104.056 17.4935 104.056 17.2745 104.056 16.946C104.056 16.727 104.056 16.508 104.056 16.289C104.056 16.07 104.056 15.9605 104.056 15.7414C104.056 15.5224 104.056 15.4129 104.166 15.0844C104.166 14.9749 104.166 14.7559 104.056 14.6464C103.946 14.5369 103.836 14.4274 103.726 14.4274C103.616 14.4274 103.506 14.4274 103.285 14.5369C103.065 14.7559 102.735 14.7559 102.294 14.8654C101.854 14.8654 101.524 14.8654 100.973 14.9749C100.533 14.9749 100.092 15.0844 99.6517 15.0844C99.2112 15.0844 98.7708 15.3034 98.4404 15.5224C98.4404 15.6319 98.4404 15.851 98.5506 16.07C98.6607 16.289 98.8809 16.508 98.991 16.508C99.3213 16.6175 99.5416 16.727 99.7618 16.946C99.982 17.165 100.092 17.384 100.202 17.7126C100.312 18.0411 100.312 18.2601 100.312 18.5886C100.312 18.9171 100.312 19.1361 100.312 19.4646V22.3118C100.312 24.9399 100.312 26.473 100.202 26.911C100.202 27.0205 100.202 27.2395 100.202 27.4586C100.202 27.7871 100.092 28.0061 99.982 28.3346C99.8719 28.6631 99.6517 28.8821 99.4314 29.2106C99.2112 29.4297 98.8809 29.6487 98.3303 29.7582L98.7708 30.4152C98.6607 30.6342 98.7708 30.7437 98.991 30.7437C99.1011 30.7437 99.3213 30.7437 99.5416 30.7437C99.8719 30.7437 100.312 30.6342 101.083 30.4152C101.303 30.4152 101.524 30.1962 101.854 29.9772C102.184 29.7582 102.515 29.4297 102.845 29.1011C103.175 28.7726 103.396 28.3346 103.616 28.0061C103.836 27.5681 103.946 27.13 103.946 26.692C103.836 26.5825 103.836 26.3635 103.946 26.1445C103.946 25.9255 104.056 25.5969 104.056 25.1589V20.7787C104.056 20.1217 104.056 19.6836 104.166 19.4646C104.276 19.2456 104.276 19.0266 104.497 18.9171C104.717 18.6981 105.047 18.4791 105.378 18.3696C105.708 18.2601 106.038 18.1506 106.369 18.1506C106.589 18.1506 106.809 18.2601 107.139 18.4791C107.47 18.6981 107.69 18.8076 107.8 19.0266C108.02 19.2456 108.24 19.3551 108.461 19.3551C108.681 19.3551 109.011 19.2456 109.342 19.0266C109.452 18.9171 109.562 18.8076 109.672 18.6981C109.782 18.4791 110.002 18.3696 110.112 18.1506C110.222 17.8221 110.333 17.603 110.443 17.384ZM138.742 24.6114C138.631 23.7354 138.411 22.6403 138.301 21.4357C138.081 20.2312 137.971 19.0266 137.751 17.603C137.53 16.289 137.31 14.9749 137.2 13.7703C137.09 12.5658 136.87 11.4707 136.76 10.5947C136.649 9.60913 136.649 8.95209 136.649 8.62358C136.649 8.07605 136.76 7.63803 136.98 7.30951C137.2 6.98099 137.31 6.65247 137.42 6.43346C137.53 6.21445 137.64 6.10494 137.64 5.99543C137.64 5.88592 137.42 5.88593 137.09 5.88593C136.76 5.88593 136.099 5.88593 135.328 5.88593C134.557 5.88593 133.456 5.99543 132.025 5.99543C131.694 7.19999 131.254 8.51406 130.924 9.82813C130.593 11.1422 130.153 12.5658 129.712 13.8799C129.272 15.1939 128.721 16.6175 128.281 18.0411C127.73 19.4646 127.18 20.7787 126.409 22.0928C126.299 22.4213 126.079 22.4213 125.969 22.0928C125.418 21.1072 124.757 19.7931 124.207 18.3696C123.656 16.946 123.106 15.4129 122.665 13.9893C122.225 12.4563 121.674 11.0327 121.234 9.71863C120.793 8.29506 120.353 7.2 119.912 6.32395C119.472 5.4479 119.031 4.79087 118.591 4.46236C118.151 4.13384 117.6 4.02433 116.939 3.91483C116.719 3.91483 116.389 3.91483 115.948 3.91483H113.195C113.085 3.91483 112.975 3.91484 112.975 4.02434L112.865 4.13384C112.755 4.24334 112.755 4.46235 112.645 4.68136C112.535 4.90038 112.535 5.00989 112.535 5.1194C113.746 5.2289 114.517 5.44791 114.957 5.66693C115.398 5.88594 115.618 6.32396 115.508 6.98099C115.178 8.62358 114.957 10.0471 114.737 11.2517C114.517 12.4563 114.297 13.3323 114.187 14.2084C113.966 14.9749 113.856 15.6319 113.746 16.1795C113.636 16.727 113.526 17.165 113.416 17.7126C113.306 18.1506 113.196 18.5886 113.085 19.0266C112.975 19.4646 112.865 20.0122 112.755 20.5597C112.645 21.1072 112.535 21.8738 112.425 22.7498C112.315 23.6259 112.204 24.6114 112.094 25.9255C111.984 26.692 111.764 27.2395 111.434 27.4586C110.993 27.6776 110.443 27.8966 109.782 28.0061C109.782 28.1156 109.672 28.2251 109.782 28.5536C109.782 28.8821 109.892 28.9916 109.892 29.1011C110.002 29.2106 110.112 29.3201 110.222 29.3201C111.434 29.3201 112.535 29.3201 113.636 29.3201C114.737 29.3201 115.948 29.4297 117.16 29.4297L117.049 28.4441C117.049 28.3346 116.829 28.2251 116.389 28.1156C115.728 28.0061 115.288 27.8966 115.067 27.6776C114.847 27.5681 114.627 27.349 114.517 26.911C114.517 26.692 114.407 26.473 114.407 26.254C114.297 26.035 114.297 25.7065 114.297 25.2684C114.297 24.9399 114.187 24.3924 114.187 23.9544C114.187 23.5164 114.187 22.8593 114.297 22.2023C114.517 20.3407 114.847 18.8076 115.178 17.384C115.508 15.9605 115.838 14.7559 116.058 13.6608C116.389 12.5658 116.609 11.5802 116.829 10.7042C117.049 9.82813 117.16 8.95208 117.16 8.18554C117.49 8.84258 117.82 9.82813 118.151 10.9232C118.481 12.1277 118.811 13.3323 119.142 14.8654C119.472 16.289 120.022 17.9316 120.573 19.5741C121.124 21.2167 121.784 22.9688 122.665 24.7209C123.106 25.597 123.436 26.473 123.766 27.2395C124.097 28.0061 124.317 28.4441 124.427 28.5536C124.537 28.7726 124.757 28.9916 124.867 28.9916C125.088 28.9916 125.198 28.8821 125.308 28.7726C125.418 28.5536 125.528 28.3346 125.748 27.7871C125.858 27.5681 126.079 27.13 126.409 26.254C126.739 25.3779 127.4 24.0639 128.281 22.2023C128.501 21.6547 128.831 20.9977 129.162 20.1217C129.492 19.3551 129.822 18.4791 130.153 17.603L131.144 14.9749C131.474 14.0989 131.804 13.3323 132.025 12.5658C132.245 11.9087 132.465 11.3612 132.685 10.9232C132.796 10.4852 132.906 10.3757 132.906 10.4852C132.906 13.0038 133.126 15.3034 133.346 17.384C133.566 19.4646 133.897 21.3262 134.117 22.9688C134.447 24.5019 134.667 25.816 134.888 26.8015C135.108 27.7871 135.218 28.4441 135.218 28.6631C135.218 28.9916 135.108 29.3202 134.998 29.7582C134.888 30.1962 134.778 30.6342 134.667 31.0722C134.557 31.5103 134.337 31.8388 134.007 32.2768C133.787 32.6053 133.456 32.8243 133.126 32.9338C133.016 32.9338 132.906 33.1528 132.906 33.3719V34.2479C133.676 34.1384 134.227 34.1384 134.667 34.0289C135.108 34.0289 135.438 34.0289 135.989 34.0289C136.87 34.0289 137.64 33.8099 138.081 33.3719C138.521 32.9338 138.852 32.3863 139.072 31.7293C139.292 31.0722 139.402 30.1962 139.292 29.3201C139.292 28.4441 139.292 27.5681 139.182 26.5825C138.962 26.1445 138.852 25.4874 138.742 24.6114ZM145.569 5.1194C145.789 5.2289 146.009 5.44791 146.119 5.66693C146.229 5.99544 146.339 6.10494 146.449 6.10494C146.89 6.54296 147.11 6.87148 147.33 7.09049C147.551 7.3095 147.771 7.41901 147.991 7.41901C148.321 7.41901 148.542 7.3095 148.542 7.09049C148.542 6.87148 148.652 6.76197 148.872 6.54296C149.092 6.32395 149.202 6.10495 149.422 5.88593C149.643 5.66692 149.753 5.44791 149.973 5.33841C150.193 5.2289 150.303 5.1194 150.303 5.1194C150.524 5.1194 150.634 5.00989 150.634 4.79088C150.634 4.46236 150.634 4.24334 150.524 4.13384C150.413 4.02433 150.303 3.91483 150.083 3.91483C150.083 3.91483 149.973 3.80533 149.863 3.69582C149.753 3.58631 149.533 3.3673 149.422 3.14829C149.202 2.92928 149.092 2.81977 148.982 2.60076C148.872 2.38175 148.762 2.27224 148.762 2.27224C148.652 1.94373 148.542 1.83423 148.321 1.83423H147.771C147.661 1.83423 147.551 1.94372 147.44 2.16273C147.44 2.16273 147.33 2.27224 147.11 2.49125C146.89 2.71026 146.78 2.81977 146.56 3.03878C146.339 3.25779 146.119 3.4768 145.899 3.58631C145.679 3.80532 145.569 3.80532 145.458 3.80532C145.348 3.80532 145.238 3.91484 145.128 4.02434C145.018 4.13385 145.018 4.35285 145.018 4.46236C145.018 4.79087 145.238 5.00989 145.569 5.1194ZM155.369 18.6981C155.809 19.5741 155.919 20.5597 155.919 21.8738C155.919 22.7498 155.809 23.6259 155.479 24.2829C155.258 24.9399 154.928 25.597 154.598 26.035C154.267 26.473 153.937 26.911 153.607 27.2395C153.276 27.5681 152.946 27.6776 152.836 27.7871C152.065 28.2251 151.294 28.5536 150.413 28.8821C149.533 29.2106 148.652 29.3201 147.881 29.3201C147.44 29.3201 147 29.3202 146.449 29.2106C145.899 29.1011 145.348 28.9916 144.908 28.7726C144.357 28.5536 143.917 28.2251 143.366 27.8966C142.926 27.5681 142.485 27.13 142.045 26.692C141.604 26.035 141.164 25.3779 140.944 24.5019C140.724 23.6259 140.613 22.8593 140.613 22.0928C140.613 21.3262 140.724 20.5597 141.054 19.7932C141.274 19.0266 141.715 18.2601 142.155 17.7126C142.816 16.8365 143.587 16.1795 144.357 15.5224C145.128 14.9749 145.899 14.4274 146.78 13.8799C147 13.7703 147.11 13.6608 147.22 13.4418C147.33 13.2228 147.44 13.0038 147.551 12.8943C147.661 12.6753 147.661 12.5658 147.771 12.3468C147.771 12.2373 147.881 12.1278 147.881 12.1278C147.881 12.1278 147.991 12.2373 147.991 12.3468C147.991 12.4563 148.101 12.6753 148.101 12.7848C148.211 13.0038 148.321 13.2228 148.431 13.4418C148.652 13.6608 148.872 13.8798 149.202 13.9893C149.973 14.4274 150.854 14.7559 151.625 15.1939C152.395 15.6319 153.166 16.07 153.827 16.6175C154.488 17.165 154.928 17.8221 155.369 18.6981ZM151.955 23.1878C151.955 22.7498 151.955 22.2023 151.845 21.6547C151.735 21.1072 151.735 20.5597 151.515 20.0122C151.404 19.4646 151.184 18.9171 150.964 18.4791C150.744 17.9316 150.413 17.603 150.083 17.165C149.753 16.8365 149.312 16.508 148.872 16.289C148.431 16.07 147.881 15.9605 147.44 15.9605C147 15.9605 146.67 15.9605 146.449 16.1795C146.229 16.3985 145.899 16.6175 145.569 16.946C145.348 17.384 145.128 17.822 145.018 18.5886C144.908 19.3551 144.798 20.1217 144.798 21.1072C144.798 22.3118 144.908 23.2973 145.238 24.2829C145.569 25.2684 145.899 25.9255 146.339 26.473C146.89 27.0205 147.33 27.4585 147.771 27.6776C148.211 27.8966 148.652 28.0061 149.092 28.0061C149.422 28.0061 149.643 28.0061 149.973 27.8966C150.303 27.7871 150.524 27.6776 150.634 27.4586C150.964 27.13 151.294 26.5825 151.515 26.035C151.845 25.1589 151.955 24.2829 151.955 23.1878ZM170.674 17.0555C170.454 16.3985 170.013 15.9605 169.573 15.5224C169.133 15.1939 168.692 14.9749 168.252 14.8654L167.04 14.3179C166.71 14.0989 166.38 13.9894 166.27 13.7703C166.049 13.5513 165.939 13.3323 165.939 13.1133C165.829 12.8943 165.829 12.7848 165.829 12.6753C165.829 12.5658 165.719 12.4563 165.719 12.4563C165.719 12.4563 165.609 12.5658 165.609 12.6753C165.609 12.7848 165.499 13.0038 165.389 13.2228C165.279 13.4418 165.169 13.6608 165.058 13.7703C164.948 13.9894 164.838 14.0989 164.618 14.2084C164.067 14.5369 163.517 14.8654 163.076 15.0844C162.636 15.3034 162.195 15.6319 161.755 16.1795C161.755 15.9605 161.755 15.851 161.755 15.7414C161.755 15.6319 161.755 15.4129 161.755 15.1939C161.755 14.9749 161.645 14.8654 161.315 14.7559C160.984 14.6464 160.544 14.5369 160.103 14.5369C159.663 14.5369 159.112 14.5369 158.562 14.6464C158.011 14.7559 157.461 14.8654 157.02 15.0844C156.69 15.3034 156.47 15.4129 156.47 15.5224C156.47 15.7414 156.36 15.9605 156.47 16.07C156.47 16.1795 156.58 16.289 156.69 16.289C157.02 16.3985 157.351 16.6175 157.571 16.8365C157.791 17.0555 157.901 17.2745 158.011 17.603C158.121 17.8221 158.231 18.0411 158.231 18.3696C158.231 18.5886 158.231 18.8076 158.231 18.8076C158.231 19.2456 158.342 19.6836 158.342 20.2312C158.342 20.7787 158.342 21.4357 158.342 22.0928V23.2973C158.342 23.7354 158.342 24.1734 158.342 24.5019C158.342 24.9399 158.342 25.2684 158.342 25.7065C158.342 26.035 158.342 26.3635 158.231 26.5825C158.121 27.13 158.011 27.4585 157.681 27.6776C157.461 27.8966 157.02 28.0061 156.47 28.2251L156.36 28.9916C156.36 29.2106 156.36 29.3201 156.58 29.3201C156.91 29.3201 157.351 29.3202 157.901 29.2106C158.452 29.1011 158.782 29.1011 158.892 29.1011C160.324 28.7726 161.204 28.4441 161.535 28.0061C161.865 27.5681 161.975 27.3491 161.975 27.2395C161.975 27.13 161.975 27.0205 161.975 26.8015V22.5308C161.975 21.7643 161.975 20.9977 161.975 20.3407C161.975 19.6836 161.975 19.2456 161.975 18.9171V18.6981L162.636 18.0411C162.856 17.822 163.076 17.603 163.297 17.384C163.517 17.2745 163.847 17.2745 164.067 17.165C164.398 17.165 164.618 17.0555 164.838 17.0555C165.279 17.0555 165.609 17.165 165.939 17.2745C166.27 17.384 166.6 17.603 166.82 17.822C167.151 18.1506 167.371 18.5886 167.481 19.1361C167.591 19.6836 167.591 20.4502 167.591 21.4357C167.591 21.9833 167.591 22.6403 167.591 23.4068C167.591 24.0639 167.591 24.8304 167.591 25.4874C167.591 26.1445 167.481 26.8015 167.481 27.4586C167.481 28.0061 167.371 28.5536 167.371 28.8821C167.371 29.1011 167.261 29.4297 167.151 29.7582C167.04 30.0867 166.93 30.4152 166.71 30.6342C166.49 30.9627 166.38 31.1818 166.16 31.4008C165.939 31.6198 165.719 31.8388 165.389 31.8388L165.499 32.3863C165.499 32.6053 165.609 32.7148 165.719 32.7148C165.829 32.7148 165.939 32.7148 166.049 32.7148C167.371 32.1673 168.472 31.5103 169.133 30.7437C169.793 30.0867 170.344 29.2106 170.674 28.3346C171.004 27.4586 171.225 26.5825 171.225 25.4874C171.225 24.5019 171.335 23.4068 171.335 22.2023V20.5597C171.335 20.0122 171.335 19.4646 171.225 19.1361C171.115 18.3696 170.894 17.7125 170.674 17.0555ZM196 32.9338C196 32.8243 195.89 32.8243 195.78 32.8243C195.339 32.7148 194.899 32.6053 194.458 32.6053C194.128 32.4958 193.688 32.4958 193.357 32.3863C193.027 32.2768 192.697 32.1673 192.366 32.0578C192.036 31.9483 191.595 31.7293 191.155 31.5103C190.715 31.2912 190.274 30.9627 189.613 30.7437C188.953 30.4152 188.292 29.9772 187.411 29.3201C186.53 28.6631 185.649 27.7871 184.548 26.5825C183.557 25.3779 182.346 23.7354 181.135 21.6547C180.915 21.3262 180.804 21.1072 180.804 20.9977C180.804 20.7787 180.804 20.7787 180.915 20.6692C181.685 20.1217 182.346 19.4646 183.117 18.6981C183.888 18.0411 184.438 17.4935 184.879 17.0555C185.429 16.6175 185.87 16.3985 186.31 16.1795C186.751 15.9605 187.191 15.8509 187.742 15.8509C188.072 15.8509 188.182 15.7414 188.292 15.5224C188.402 15.3034 188.402 15.1939 188.402 15.0844C188.402 14.9749 188.402 14.8654 188.402 14.7559C188.402 14.6464 188.292 14.5369 188.182 14.5369C186.861 14.6464 185.87 14.7559 185.099 14.7559C184.328 14.8654 183.778 14.8654 183.337 14.9749C182.897 15.0844 182.676 15.1939 182.456 15.3034C182.236 15.4129 182.126 15.7414 181.906 15.9605C181.685 16.1795 181.575 16.6175 181.245 17.0555C181.025 17.4935 180.584 18.0411 179.924 18.6981C179.813 18.8076 179.703 19.0266 179.483 19.2456C179.263 19.4646 179.043 19.6837 178.822 19.9027C178.602 20.1217 178.382 20.3407 178.272 20.4502C178.052 20.6692 177.942 20.6692 177.942 20.6692C177.831 20.6692 177.721 20.6692 177.721 20.5597C177.721 20.4502 177.721 20.3407 177.721 20.1217V10.8137H189.834C190.054 10.8137 190.274 10.7042 190.494 10.5947C190.715 10.4852 190.715 10.2662 190.715 10.0472C190.715 9.82814 190.604 9.60913 190.494 9.49963C190.274 9.39012 190.054 9.2806 189.834 9.2806H177.721V6.10494V3.91483C177.721 3.3673 177.721 2.92927 177.721 2.49125C177.721 2.16273 177.721 1.94373 177.721 1.72471V1.39619C177.721 0.848666 177.501 0.629664 177.171 0.73917C177.061 0.848676 176.73 0.848676 176.18 0.73917C175.629 0.629664 175.189 0.520155 174.638 0.41065C174.088 0.301144 173.647 0.191635 173.207 0.0821293C172.766 -0.0273764 172.436 -0.0273764 172.326 0.0821293C172.216 0.0821293 172.216 0.191638 172.216 0.41065C172.216 0.629661 172.216 0.73916 172.326 0.848666C172.436 0.958171 172.546 1.06769 172.766 1.2867C172.987 1.3962 173.207 1.61522 173.427 1.83423C173.537 1.94373 173.537 2.05324 173.647 2.38176C173.757 2.71027 173.757 3.03879 173.757 3.47681C173.757 3.91484 173.867 4.24334 173.867 4.68136C173.867 5.11939 173.867 5.44791 173.867 5.66693C173.867 6.10495 173.867 6.54296 173.867 7.2C173.867 7.85703 173.867 8.51406 173.867 9.2806H171.225H156.91H155.479H139.402C139.182 9.2806 138.962 9.39012 138.742 9.49963C138.521 9.60913 138.521 9.82814 138.521 10.0472C138.521 10.2662 138.631 10.4852 138.742 10.5947C138.962 10.7042 139.182 10.8137 139.402 10.8137H155.479H157.24H171.555H174.198V17.4935C174.198 20.1217 174.198 22.2023 174.088 23.7354C173.978 25.2684 173.978 26.254 173.757 26.8015C173.757 26.911 173.647 27.0205 173.647 27.2395C173.647 27.4586 173.537 27.6776 173.427 27.8966C173.317 28.1156 173.207 28.3346 172.986 28.6631C172.766 28.8821 172.546 28.9916 172.326 29.1011C172.216 29.1011 172.106 29.3201 171.995 29.5392L171.885 30.0867C171.885 30.3057 171.995 30.3057 172.106 30.3057C173.097 30.3057 173.867 30.0867 174.638 29.7582C175.299 29.4297 175.849 28.9916 176.29 28.4441C176.73 27.8966 177.061 27.3491 177.281 26.692C177.501 26.035 177.611 25.4874 177.611 24.9399C177.611 24.3924 177.611 23.8449 177.611 23.4068C177.611 22.9688 177.611 22.6403 177.611 22.2023C177.611 21.8738 177.721 21.7643 177.942 21.7643C178.052 21.7643 178.272 21.7643 178.382 21.6547C178.602 21.5452 178.712 21.5453 178.933 21.5453C179.043 21.5453 179.153 21.6548 179.263 21.7643C179.483 22.0928 179.703 22.4213 179.924 22.7498C180.144 23.0783 180.364 23.5163 180.694 24.0639C181.025 24.5019 181.355 25.1589 181.685 25.816C182.016 26.473 182.566 27.2395 183.117 28.2251C183.337 28.6631 183.667 29.1011 184.218 29.5392C184.769 29.9772 185.209 30.6342 185.76 31.1817C186.31 31.7293 186.971 32.3863 187.631 32.9338C188.292 33.4814 188.953 34.0289 189.724 34.4669C190.384 34.9049 191.155 35.343 191.816 35.562C192.476 35.8905 193.137 36 193.688 36C193.908 36 194.018 35.8905 194.238 35.6715C194.458 35.4525 194.679 35.124 194.789 34.9049C195.009 34.5764 195.119 34.3574 195.339 34.1384C195.449 33.9194 195.56 33.8099 195.67 33.8099C195.78 33.8099 195.78 33.8099 195.89 33.7004C195.89 33.5909 196 33.4814 196 33.2624C196 33.2624 196 33.0433 196 32.9338Z" fill="#2B3940"/>
</svg>
