<?xml version="1.0" standalone="no"?>
<!DOCTYPE svg PUBLIC "-//W3C//DTD SVG 20010904//EN"
 "http://www.w3.org/TR/2001/REC-SVG-20010904/DTD/svg10.dtd">
<svg version="1.0" xmlns="http://www.w3.org/2000/svg"
 width="512.000000pt" height="512.000000pt" viewBox="0 0 512.000000 512.000000"
 preserveAspectRatio="xMidYMid meet">
<metadata>
Created by potrace 1.11, written by Peter Selinger 2001-2013
</metadata>
<g transform="translate(0.000000,512.000000) scale(0.100000,-0.100000)"
fill="#000000" stroke="none">
<path d="M2736 4052 c-15 -17 -16 -95 -16 -953 0 -994 -1 -970 48 -1065 26
-51 98 -143 142 -181 98 -85 244 -118 384 -86 56 13 137 50 144 66 2 4 10 7
18 7 25 0 148 132 173 185 44 94 47 135 46 688 -2 513 -2 523 -24 578 -66 171
-191 291 -338 325 -67 15 -215 11 -270 -9 l-43 -15 0 223 c0 272 9 255 -142
255 -89 0 -107 -3 -122 -18z m548 -716 c41 -17 79 -66 101 -131 15 -44 17
-103 17 -526 0 -262 -3 -487 -7 -500 -25 -85 -111 -144 -206 -143 -91 2 -144
47 -175 150 -20 67 -20 960 0 1017 47 131 151 183 270 133z"/>
<path d="M4100 4052 c-13 -14 -15 -155 -15 -1137 0 -1002 2 -1122 16 -1136 12
-12 39 -15 121 -16 101 -1 107 1 118 23 18 32 18 2230 1 2262 -11 21 -19 22
-119 22 -87 -1 -110 -4 -122 -18z"/>
<path d="M457 3624 c-1 -1 -28 -4 -61 -8 -106 -11 -260 -113 -326 -216 -17
-27 -40 -78 -51 -112 -18 -59 -19 -95 -16 -614 l2 -551 44 -89 c73 -147 204
-259 328 -280 68 -12 206 -7 253 10 24 8 46 13 48 11 7 -7 6 -239 -2 -286 -26
-169 -214 -238 -331 -121 -35 34 -48 59 -64 120 -20 71 -35 80 -143 80 -111 1
-138 -11 -138 -61 2 -174 157 -388 321 -442 67 -23 189 -26 271 -8 157 34 316
195 353 357 8 37 11 297 10 936 l-2 885 -22 56 c-28 72 -107 185 -162 233 -75
63 -162 96 -271 100 -22 0 -40 0 -41 0z m138 -314 c19 -18 44 -56 57 -84 l23
-51 0 -495 c0 -492 0 -495 -22 -535 -54 -97 -107 -126 -205 -112 -49 8 -69 19
-106 62 -61 69 -63 90 -60 631 l3 489 24 38 c23 37 77 79 117 90 10 3 45 4 78
2 50 -3 63 -8 91 -35z"/>
<path d="M1743 3612 c-101 -22 -239 -121 -305 -218 -58 -86 -92 -240 -62 -283
14 -19 25 -21 128 -21 123 0 133 4 140 56 8 72 66 157 123 180 71 30 169 9
224 -49 33 -33 60 -102 56 -139 -2 -18 -12 -51 -22 -73 -27 -56 -201 -226
-324 -315 -204 -148 -274 -225 -311 -341 -60 -186 -14 -371 129 -522 180 -190
483 -173 685 38 52 54 96 142 111 220 11 61 7 1029 -5 1095 -27 148 -184 325
-327 366 -68 20 -170 22 -240 6z m300 -1176 c-2 -233 -2 -234 -29 -287 -40
-80 -78 -107 -158 -114 -127 -11 -220 86 -215 223 3 79 32 131 100 181 73 53
247 192 274 219 11 11 22 18 24 16 3 -3 4 -110 4 -238z"/>
<path d="M4684 2290 c-104 -24 -144 -145 -88 -267 14 -32 228 -253 244 -253 3
0 35 28 71 63 36 34 85 79 107 100 120 109 134 265 32 335 -58 39 -143 25
-189 -33 l-20 -26 -17 26 c-28 44 -89 67 -140 55z"/>
</g>
</svg>
