<svg width="16" height="32" viewBox="0 0 16 32" fill="none" xmlns="http://www.w3.org/2000/svg">
<path d="M7.40571 0H8.59428C11.3371 0 13.6229 1.77231 15.5429 5.31692C15.8171 6.49846 16 7.38462 16 7.97539V23.9262C16 27.3723 14.08 30.0308 10.24 31.7046L8.68571 32H7.49714C4.48 32 2.19428 30.2277 0.457142 26.5846C0.182856 25.6985 0 24.8123 0 24.1231V23.1385C0 20.1846 1.64572 17.6246 5.02857 15.4585C9.23429 12.2092 11.4286 9.84615 11.4286 8.27077C11.4286 6.69539 10.5143 5.51385 8.68571 4.82462H7.86285C6.30857 4.82462 5.30286 5.80923 4.66286 7.87692C4.66286 8.76308 4.38857 9.15693 3.74857 9.15693H0.54857L0 8.56615V7.97539C0 4.82462 1.73714 2.36308 5.12 0.590772C5.85143 0.196926 6.58286 0 7.40571 0ZM4.57143 23.6308C4.57143 25.5015 5.48572 26.6831 7.31429 27.2739H8.04571C9.69143 27.2739 10.7886 26.1908 11.3371 24.0246V15.36H12.16C10.7886 16.7385 8.50286 18.6092 5.30286 21.0708C4.84571 21.8585 4.57143 22.6462 4.57143 23.6308Z" fill="#101010"/>
</svg>
