<svg width="16" height="38" viewBox="0 0 16 38" fill="none" xmlns="http://www.w3.org/2000/svg">
<path d="M0.639999 0H4.11429L4.66286 0.565759V7.9206C5.39429 7.44913 6.58286 7.26055 8.13714 7.26055C11.8857 7.26055 14.4457 9.42928 15.9086 13.6725L16 14.8983V30.268C16 33.5682 14.08 36.1141 10.24 37.7171L8.68571 38H7.49713C4.75428 38 2.56 36.4913 0.822861 33.4739C0.274289 32.4367 0 31.3995 0 30.3623V0.565759L0.639999 0ZM4.66286 15.464V29.8908C5.02857 32.2481 6.12571 33.4739 7.95428 33.4739H8.13714C10.3314 33.0968 11.4286 31.9653 11.4286 29.9851V15.3697C11.0629 13.0124 9.96571 11.7866 8.22857 11.7866L7.95428 11.6923C6.49142 11.6923 5.48572 12.6352 4.84572 14.4268L4.66286 15.464Z" fill="#101010"/>
</svg>
