<svg width="14" height="38" viewBox="0 0 14 38" fill="none" xmlns="http://www.w3.org/2000/svg">
<path d="M6.4 0H7.44C9.84 0 11.76 1.35412 13.28 4.06236C13.76 4.99332 14 5.92428 14 6.85523V31.2294C14 33.5991 12.72 35.6303 10.24 37.2383C9.28 37.7461 8.4 38 7.52 38H6.48C4 38 2 36.4766 0.4 33.3452C0.16 32.4989 0 31.7372 0 31.1448V30.8062L0.479999 30.2984H3.28C3.68 30.2984 4.08 30.9755 4.32 32.245C4.96 33.4298 5.84 34.1069 6.96 34.1069H7.12C8.56 34.1069 9.52 33.1759 10 31.314V27.0824C9.36 27.5056 8.32 27.6748 6.96 27.6748C3.92 27.6748 1.76 25.9822 0.32 22.5969C0.0799997 21.9198 0 21.3274 0 20.735V6.85523C0 3.8931 1.68 1.60802 5.04 0.169267L6.4 0ZM4.08 7.19376V20.2272C4.4 22.343 5.36 23.4432 6.88 23.4432L7.12 23.5278C8.4 23.5278 9.28 22.6815 9.84 21.0735L9.92 20.1425V7.19376C9.6 5.07795 8.64 3.97773 7.04 3.97773H6.88C5.04 4.31626 4.08 5.41648 4.08 7.19376Z" fill="#101010"/>
</svg>
