<svg width="9" height="9" viewBox="0 0 9 9" fill="none" xmlns="http://www.w3.org/2000/svg">
<path d="M4.41081 9C4.14319 8.80385 3.96476 8.60769 3.78635 8.41154C3.25111 7.82307 2.62665 7.33268 2.09141 6.74422C1.73458 6.3519 1.28856 5.9596 1.02094 5.56729C0.75332 5.17498 0.485683 4.78266 0.307269 4.29228C0.218062 3.99804 0.128855 3.60573 0.0396476 3.3115C0.0396476 3.01727 -0.0495595 2.72303 0.0396476 2.4288C0.0396476 1.34995 0.664092 0.467247 1.55616 0.173014C2.53744 -0.219297 3.34031 0.0749344 4.05397 0.859556C4.23239 1.05571 4.3216 1.25187 4.41081 1.44802C4.41081 1.44802 4.41079 1.44802 4.5 1.44802C4.76762 0.957634 5.12446 0.565324 5.6597 0.271091C6.01653 0.0749361 6.46256 -0.0231381 6.90859 0.0749395C7.44384 0.173017 7.88987 0.369168 8.2467 0.761478C8.60353 1.15379 8.87115 1.64418 8.96035 2.13457C9.04956 2.4288 8.96035 2.72304 8.96035 3.01727C8.96035 3.3115 8.87115 3.70381 8.78195 3.99805C8.69274 4.48843 8.42511 4.88074 8.15749 5.27305C7.88987 5.66536 7.53304 6.05767 7.17622 6.3519C6.64097 6.84229 6.10573 7.33268 5.57049 7.92115C5.12445 8.31346 4.76764 8.70577 4.41081 9Z" fill="#FCCD34"/>
</svg>
