<svg width="18" height="36" viewBox="0 0 18 36" fill="none" xmlns="http://www.w3.org/2000/svg">
<path d="M0.570092 0H4.08564L4.65572 0.537315V35.4627L4.08564 36H0.570092L0 35.4627V0.537315L0.570092 0Z" fill="#101010"/>
<path d="M13.112 35.9104C12.827 35.7313 12.6369 35.5522 12.4469 35.3731C11.8768 34.8358 11.2117 34.3881 10.6416 33.8507C10.2616 33.4925 9.78651 33.1343 9.50146 32.7761C9.21642 32.4179 8.93138 32.0597 8.74135 31.6119C8.64633 31.3433 8.55132 30.9851 8.4563 30.7164C8.4563 30.4478 8.36129 30.1791 8.4563 29.9104C8.4563 28.9254 9.1214 28.1194 10.0715 27.8507C11.1167 27.4925 11.9718 27.7612 12.732 28.4776C12.922 28.6567 13.017 28.8358 13.112 29.0149C13.112 29.0149 13.112 29.0149 13.207 29.0149C13.4921 28.5672 13.8721 28.209 14.4422 27.9403C14.8223 27.7612 15.2974 27.6716 15.7724 27.7612C16.3425 27.8507 16.8176 28.0298 17.1976 28.3881C17.5777 28.7463 17.8628 29.194 17.9578 29.6418C18.0528 29.9104 17.9578 30.1791 17.9578 30.4478C17.9578 30.7164 17.8627 31.0746 17.7677 31.3433C17.6727 31.791 17.3877 32.1493 17.1026 32.5075C16.8176 32.8657 16.4375 33.2239 16.0575 33.4925C15.4874 33.9403 14.9173 34.3881 14.3472 34.9254C13.8721 35.2836 13.4921 35.6418 13.112 35.9104Z" fill="#101010"/>
</svg>
