<svg width="46" height="46" viewBox="0 0 46 46" fill="none" xmlns="http://www.w3.org/2000/svg">
<path d="M0 10C0 4.47715 4.47715 0 10 0H36C41.5228 0 46 4.47715 46 10V36C46 41.5228 41.5228 46 36 46H10C4.47715 46 0 41.5228 0 36V10Z" fill="#101010"/>
<path d="M9.6478 16.5233H10.0943C11.1248 16.5233 11.9492 17.082 12.6018 18.1992C12.8079 18.5833 12.9109 18.9674 12.9109 19.3514V29.4068C12.9109 30.3844 12.3613 31.2224 11.2965 31.8858C10.8844 32.0952 10.5065 32.2 10.1287 32.2H9.68215C8.61734 32.2 7.75862 31.5715 7.07165 30.2797C6.9686 29.9305 6.8999 29.6163 6.8999 29.3719V29.2322L7.10599 29.0228H8.3082C8.47994 29.0228 8.65169 29.3021 8.75473 29.8258C9.02952 30.3146 9.40736 30.5939 9.88824 30.5939H9.95694C10.5752 30.5939 10.9874 30.2099 11.1935 29.4417V27.696C10.9187 27.8706 10.4722 27.9404 9.88824 27.9404C8.58299 27.9404 7.65557 27.2421 7.0373 25.8455C6.93425 25.5662 6.8999 25.3218 6.8999 25.0774V19.3514C6.8999 18.1294 7.62122 17.1867 9.06387 16.5932L9.6478 16.5233ZM8.65169 19.4911V24.8679C8.78908 25.7408 9.20126 26.1947 9.85389 26.1947L9.95694 26.2296C10.5065 26.2296 10.8844 25.8804 11.1248 25.2171L11.1591 24.833V19.4911C11.0217 18.6182 10.6096 18.1643 9.92259 18.1643H9.85389C9.06387 18.304 8.65169 18.7579 8.65169 19.4911Z" fill="#FCCD34"/>
<path d="M18.2693 16.5233H18.7159C19.7463 16.5233 20.605 17.1518 21.3264 18.4087C21.4294 18.8277 21.4981 19.1419 21.4981 19.3514V25.0076C21.4981 26.2296 20.7768 27.1723 19.3341 27.7658L18.7502 27.8706H18.3037C17.1702 27.8706 16.3114 27.2421 15.6588 25.9503C15.5558 25.636 15.4871 25.3218 15.4871 25.0774V24.7283C15.4871 23.6808 16.1054 22.773 17.3763 22.0049C18.9563 20.8527 19.7807 20.0148 19.7807 19.4562C19.7807 18.8975 19.4372 18.4785 18.7502 18.2341H18.4411C17.8571 18.2341 17.4793 18.5833 17.2389 19.3165C17.2389 19.6307 17.1358 19.7704 16.8954 19.7704H15.6932L15.4871 19.5609V19.3514C15.4871 18.2341 16.1397 17.3613 17.4106 16.7328C17.6854 16.5932 17.9602 16.5233 18.2693 16.5233ZM17.2045 24.9028C17.2045 25.5662 17.548 25.9852 18.235 26.1947H18.5098C19.128 26.1947 19.5402 25.8106 19.7463 25.0425V21.97H20.0555C19.5402 22.4588 18.6815 23.1222 17.4793 23.9951C17.3076 24.2744 17.2045 24.5537 17.2045 24.9028Z" fill="#FCCD34"/>
<path d="M24.246 13.8H25.5512L25.7573 14.0095V16.7328C26.0321 16.5582 26.4787 16.4884 27.0626 16.4884C28.4709 16.4884 29.4326 17.2914 29.9822 18.8626L30.0166 19.3165V25.0076C30.0166 26.2296 29.2953 27.1723 27.8526 27.7658L27.2687 27.8706H26.8221C25.7917 27.8706 24.9673 27.3119 24.3147 26.1947C24.1086 25.8106 24.0056 25.4266 24.0056 25.0425V14.0095L24.246 13.8ZM25.7573 19.526V24.8679C25.8947 25.7408 26.3069 26.1947 26.9939 26.1947H27.0626C27.887 26.055 28.2991 25.636 28.2991 24.9028V19.4911C28.1617 18.6182 27.7496 18.1643 27.0969 18.1643L26.9939 18.1294C26.4443 18.1294 26.0665 18.4785 25.826 19.1419L25.7573 19.526Z" fill="#FCCD34"/>
<path d="M32.7988 13.8H34.0697L34.2758 14.0095V27.6262L34.0697 27.8357H32.7988L32.5927 27.6262V14.0095L32.7988 13.8Z" fill="#FCCD34"/>
<path d="M37.3329 27.8007C37.2298 27.7309 37.1611 27.6611 37.0924 27.5913C36.8863 27.3818 36.6459 27.2072 36.4398 26.9977C36.3024 26.8581 36.1306 26.7184 36.0276 26.5787C35.9246 26.4391 35.8215 26.2994 35.7528 26.1248C35.7185 26.0201 35.6841 25.8804 35.6498 25.7757C35.6498 25.671 35.6154 25.5662 35.6498 25.4615C35.6498 25.0774 35.8902 24.7632 36.2337 24.6584C36.6115 24.5188 36.9207 24.6235 37.1955 24.9028C37.2642 24.9727 37.2985 25.0425 37.3329 25.1123C37.3329 25.1123 37.3329 25.1123 37.3672 25.1123C37.4702 24.9377 37.6076 24.7981 37.8137 24.6933C37.9511 24.6235 38.1229 24.5886 38.2946 24.6235C38.5007 24.6584 38.6724 24.7283 38.8098 24.8679C38.9472 25.0076 39.0503 25.1822 39.0846 25.3567C39.119 25.4615 39.0846 25.5662 39.0846 25.671C39.0846 25.7757 39.0503 25.9154 39.0159 26.0201C38.9816 26.1947 38.8785 26.3343 38.7755 26.474C38.6725 26.6137 38.5351 26.7533 38.3977 26.8581C38.1916 27.0326 37.9855 27.2072 37.7794 27.4167C37.6076 27.5563 37.4702 27.696 37.3329 27.8007Z" fill="#FCCD34"/>
</svg>
