<svg width="111" height="24" viewBox="0 0 111 24" fill="none" xmlns="http://www.w3.org/2000/svg">
<path d="M38.5315 16.9108C37.891 16.9108 37.2946 16.8338 36.7422 16.6799C36.1978 16.5168 35.7495 16.295 35.3972 16.0142C35.2611 15.8965 35.161 15.7742 35.097 15.6474C35.041 15.5207 35.0129 15.3576 35.0129 15.1584C35.0129 14.8867 35.085 14.6513 35.2291 14.452C35.3732 14.2528 35.5413 14.1532 35.7335 14.1532C35.8375 14.1532 35.9376 14.1713 36.0337 14.2075C36.1298 14.2437 36.2498 14.3117 36.3939 14.4113C36.7222 14.6196 37.0464 14.769 37.3667 14.8596C37.6949 14.9501 38.0632 14.9954 38.4715 14.9954C38.9438 14.9954 39.3001 14.9184 39.5402 14.7645C39.7884 14.6015 39.9125 14.366 39.9125 14.0581C39.9125 13.8498 39.7964 13.6732 39.5643 13.5283C39.3401 13.3743 38.9078 13.2249 38.2673 13.08C37.4747 12.8898 36.8543 12.6634 36.406 12.4008C35.9576 12.1382 35.6414 11.8303 35.4573 11.4771C35.2811 11.1148 35.1931 10.6801 35.1931 10.173C35.1931 9.59339 35.3452 9.06813 35.6494 8.59721C35.9536 8.12629 36.3699 7.75951 36.8983 7.49688C37.4347 7.2252 38.0351 7.08936 38.6996 7.08936C39.284 7.08936 39.8044 7.1618 40.2608 7.3067C40.7171 7.4516 41.1334 7.67801 41.5097 7.98592C41.6538 8.10365 41.7538 8.23043 41.8099 8.36628C41.8739 8.49306 41.906 8.65155 41.906 8.84173C41.906 9.11341 41.8339 9.34887 41.6898 9.54811C41.5537 9.74734 41.3896 9.84696 41.1974 9.84696C41.0934 9.84696 40.9973 9.83338 40.9092 9.80621C40.8212 9.76999 40.6971 9.69754 40.537 9.58886C40.4969 9.56169 40.3808 9.49377 40.1887 9.3851C40.0046 9.26737 39.7844 9.17681 39.5282 9.11341C39.28 9.04096 39.0078 9.00474 38.7116 9.00474C38.3033 9.00474 37.9751 9.0953 37.7269 9.27642C37.4787 9.44849 37.3546 9.67942 37.3546 9.96922C37.3546 10.1413 37.3987 10.2817 37.4867 10.3903C37.5748 10.499 37.7389 10.6077 37.9791 10.7164C38.2193 10.816 38.5755 10.9201 39.0479 11.0288C39.8164 11.219 40.4209 11.4499 40.8612 11.7216C41.3015 11.9842 41.6137 12.2921 41.7979 12.6453C41.982 12.9985 42.0741 13.4151 42.0741 13.8951C42.0741 14.4928 41.926 15.0226 41.6298 15.4844C41.3335 15.9372 40.9172 16.2904 40.3808 16.544C39.8525 16.7885 39.236 16.9108 38.5315 16.9108Z" fill="#BDBDBD"/>
<path d="M51.3277 7.53764C51.5359 7.26595 51.7801 7.13011 52.0603 7.13011C52.3245 7.13011 52.5606 7.24784 52.7688 7.4833C52.9849 7.7097 53.093 7.97233 53.093 8.27119C53.093 8.53382 53.005 8.78286 52.8288 9.01832L50.307 12.3193V15.6339C50.307 16.0323 50.2029 16.3402 49.9948 16.5576C49.7946 16.7659 49.5344 16.87 49.2142 16.87C48.886 16.87 48.6178 16.7659 48.4096 16.5576C48.2015 16.3402 48.0974 16.0323 48.0974 15.6339V12.3193L45.5996 9.01832C45.4154 8.78286 45.3234 8.52929 45.3234 8.2576C45.3234 7.95875 45.4275 7.69612 45.6356 7.46971C45.8438 7.24331 46.0799 7.13011 46.3441 7.13011C46.6243 7.13011 46.8685 7.26595 47.0767 7.53764L49.2022 10.3903L51.3277 7.53764Z" fill="#BDBDBD"/>
<path d="M63.3892 7.14369C63.6934 7.14369 63.9416 7.25689 64.1337 7.4833C64.3339 7.7097 64.434 8.00403 64.434 8.36628V15.6339C64.434 16.0052 64.3379 16.304 64.1458 16.5304C63.9536 16.7568 63.7054 16.87 63.4012 16.87C63.041 16.87 62.7688 16.7342 62.5846 16.4625L58.934 11.3141V15.6339C58.934 16.0052 58.8419 16.304 58.6578 16.5304C58.4736 16.7568 58.2254 16.87 57.9132 16.87C57.609 16.87 57.3608 16.7568 57.1687 16.5304C56.9765 16.304 56.8805 16.0052 56.8805 15.6339V8.36628C56.8805 8.00403 56.9765 7.7097 57.1687 7.4833C57.3608 7.25689 57.609 7.14369 57.9132 7.14369C58.2575 7.14369 58.5257 7.27954 58.7178 7.55122L62.3685 12.6861V8.36628C62.3685 7.99497 62.4605 7.70065 62.6447 7.4833C62.8368 7.25689 63.085 7.14369 63.3892 7.14369Z" fill="#BDBDBD"/>
<path d="M77.0772 15.2535C77.1492 15.4256 77.1853 15.5931 77.1853 15.7561C77.1853 16.055 77.0772 16.3085 76.861 16.5168C76.6529 16.7251 76.4127 16.8293 76.1405 16.8293C75.9564 16.8293 75.7883 16.7749 75.6361 16.6663C75.484 16.5576 75.3639 16.3946 75.2759 16.1772L74.7355 14.8052H70.8447L70.2923 16.1772C70.2042 16.3946 70.0801 16.5576 69.92 16.6663C69.7679 16.7749 69.5998 16.8293 69.4156 16.8293C69.1434 16.8293 68.8952 16.7251 68.6711 16.5168C68.4549 16.3085 68.3468 16.055 68.3468 15.7561C68.3468 15.5931 68.3829 15.4256 68.4549 15.2535L71.6252 7.89083C71.7293 7.64631 71.8814 7.46066 72.0816 7.33387C72.2897 7.19803 72.5179 7.13011 72.7661 7.13011C73.0062 7.13011 73.2304 7.19803 73.4385 7.33387C73.6467 7.46066 73.8028 7.64631 73.9069 7.89083L77.0772 15.2535ZM71.5892 12.9306H73.9909L72.7901 9.9013L71.5892 12.9306Z" fill="#BDBDBD"/>
<path d="M82.2018 16.87C81.8656 16.87 81.5974 16.7614 81.3972 16.544C81.2051 16.3176 81.109 16.0142 81.109 15.6339V8.36628C81.109 7.99497 81.1971 7.7097 81.3732 7.51047C81.5494 7.31123 81.8015 7.21161 82.1298 7.21161H85.204C86.1407 7.21161 86.8692 7.4833 87.3896 8.02667C87.91 8.56098 88.1702 9.30812 88.1702 10.2681C88.1702 11.219 87.906 11.9661 87.3776 12.5095C86.8572 13.0529 86.1327 13.3245 85.204 13.3245H83.3186V15.6339C83.3186 16.0142 83.2186 16.3176 83.0184 16.544C82.8183 16.7614 82.5461 16.87 82.2018 16.87ZM84.9038 11.4499C85.3121 11.4499 85.6123 11.3548 85.8044 11.1646C86.0046 10.9745 86.1047 10.6801 86.1047 10.2817C86.1047 9.49377 85.7044 9.09983 84.9038 9.09983H83.3186V11.4499H84.9038Z" fill="#BDBDBD"/>
<path d="M93.331 16.87C92.9948 16.87 92.7266 16.7614 92.5264 16.544C92.3343 16.3176 92.2382 16.0142 92.2382 15.6339V8.36628C92.2382 7.99497 92.3263 7.7097 92.5024 7.51047C92.6785 7.31123 92.9307 7.21161 93.259 7.21161H96.3332C97.2699 7.21161 97.9984 7.4833 98.5188 8.02667C99.0392 8.56098 99.2994 9.30812 99.2994 10.2681C99.2994 11.219 99.0352 11.9661 98.5068 12.5095C97.9864 13.0529 97.2619 13.3245 96.3332 13.3245H94.4478V15.6339C94.4478 16.0142 94.3478 16.3176 94.1476 16.544C93.9475 16.7614 93.6753 16.87 93.331 16.87ZM96.033 11.4499C96.4413 11.4499 96.7415 11.3548 96.9336 11.1646C97.1338 10.9745 97.2339 10.6801 97.2339 10.2817C97.2339 9.49377 96.8336 9.09983 96.033 9.09983H94.4478V11.4499H96.033Z" fill="#BDBDBD"/>
<path d="M106.55 16.9108C105.909 16.9108 105.313 16.8338 104.76 16.6799C104.216 16.5168 103.768 16.295 103.415 16.0142C103.279 15.8965 103.179 15.7742 103.115 15.6474C103.059 15.5207 103.031 15.3576 103.031 15.1584C103.031 14.8867 103.103 14.6513 103.247 14.452C103.391 14.2528 103.56 14.1532 103.752 14.1532C103.856 14.1532 103.956 14.1713 104.052 14.2075C104.148 14.2437 104.268 14.3117 104.412 14.4113C104.74 14.6196 105.065 14.769 105.385 14.8596C105.713 14.9501 106.081 14.9954 106.49 14.9954C106.962 14.9954 107.318 14.9184 107.558 14.7645C107.807 14.6015 107.931 14.366 107.931 14.0581C107.931 13.8498 107.815 13.6732 107.582 13.5283C107.358 13.3743 106.926 13.2249 106.286 13.08C105.493 12.8898 104.873 12.6634 104.424 12.4008C103.976 12.1382 103.66 11.8303 103.475 11.4771C103.299 11.1148 103.211 10.6801 103.211 10.173C103.211 9.59339 103.363 9.06813 103.668 8.59721C103.972 8.12629 104.388 7.75951 104.917 7.49688C105.453 7.2252 106.053 7.08936 106.718 7.08936C107.302 7.08936 107.823 7.1618 108.279 7.3067C108.735 7.4516 109.152 7.67801 109.528 7.98592C109.672 8.10365 109.772 8.23043 109.828 8.36628C109.892 8.49306 109.924 8.65155 109.924 8.84173C109.924 9.11341 109.852 9.34887 109.708 9.54811C109.572 9.74734 109.408 9.84696 109.216 9.84696C109.112 9.84696 109.016 9.83338 108.927 9.80621C108.839 9.76999 108.715 9.69754 108.555 9.58886C108.515 9.56169 108.399 9.49377 108.207 9.3851C108.023 9.26737 107.803 9.17681 107.546 9.11341C107.298 9.04096 107.026 9.00474 106.73 9.00474C106.322 9.00474 105.993 9.0953 105.745 9.27642C105.497 9.44849 105.373 9.67942 105.373 9.96922C105.373 10.1413 105.417 10.2817 105.505 10.3903C105.593 10.499 105.757 10.6077 105.997 10.7164C106.238 10.816 106.594 10.9201 107.066 11.0288C107.835 11.219 108.439 11.4499 108.879 11.7216C109.32 11.9842 109.632 12.2921 109.816 12.6453C110 12.9985 110.092 13.4151 110.092 13.8951C110.092 14.4928 109.944 15.0226 109.648 15.4844C109.352 15.9372 108.935 16.2904 108.399 16.544C107.871 16.7885 107.254 16.9108 106.55 16.9108Z" fill="#BDBDBD"/>
<path fill-rule="evenodd" clip-rule="evenodd" d="M5.81915 3.84417C2.48382 5.68576 1.28019 9.88418 3.12348 13.1966C4.96962 16.5141 9.1943 17.7257 12.5348 15.8813C13.5339 15.3296 14.3864 14.5339 15.0008 13.5806L21.6669 2.96665L9.08513 2.97898C7.95025 2.99299 6.81901 3.2921 5.81915 3.84417ZM9.07098 0.719664C7.55761 0.736047 6.05588 1.13261 4.72708 1.8663C0.300712 4.3103 -1.30436 9.88604 1.14924 14.2952C3.60285 18.7043 9.20043 20.3032 13.6268 17.8591C14.9556 17.1254 16.089 16.067 16.9075 14.7927L24.6683 2.4358C25.141 1.68306 24.5994 0.704452 23.7105 0.705323L9.07098 0.719664Z" fill="#EAEBEC"/>
<path fill-rule="evenodd" clip-rule="evenodd" d="M19.3724 20.1558C22.7077 18.3142 23.9113 14.1158 22.068 10.8034C20.2219 7.48583 15.9972 6.27423 12.6567 8.11866C11.6576 8.67033 10.8051 9.46607 10.1907 10.4193L3.52462 21.0333L16.1064 21.0209C17.2413 21.0069 18.3725 20.7078 19.3724 20.1558ZM16.1205 23.2803C17.6339 23.2639 19.1356 22.8673 20.4644 22.1336C24.8908 19.6896 26.4959 14.1139 24.0423 9.70474C21.5887 5.29559 15.9911 3.69677 11.5647 6.1408C10.2359 6.87449 9.10251 7.93288 8.284 9.20723L0.523254 21.5641C0.050495 22.3169 0.592114 23.2955 1.481 23.2946L16.1205 23.2803Z" fill="#EAEBEC"/>
<path fill-rule="evenodd" clip-rule="evenodd" d="M19.9923 5.90124C19.949 5.88059 19.9057 5.86029 19.8621 5.84032C17.2957 4.66345 14.2195 4.67498 11.5647 6.14084C10.2359 6.87454 9.10251 7.93293 8.284 9.20728L3.40674 16.973C3.96204 17.419 4.56434 17.7956 5.19925 18.0988C5.24248 18.1194 5.28587 18.1397 5.3294 18.1597C7.89584 19.3366 10.972 19.325 13.6268 17.8592C14.9557 17.1255 16.089 16.0671 16.9075 14.7928L21.7848 7.02702C21.2295 6.58104 20.6272 6.20441 19.9923 5.90124ZM15.0008 13.5807L18.6469 7.77518C16.7646 7.00698 14.5634 7.06596 12.6568 8.11871C11.6576 8.67037 10.8051 9.4661 10.1907 10.4193L6.54459 16.2248C8.4269 16.993 10.6281 16.9341 12.5348 15.8813C13.5339 15.3296 14.3864 14.5339 15.0008 13.5807Z" fill="#BDBDBD"/>
<path d="M7.70281 10.1327L8.284 9.20728C8.41354 9.00559 8.55097 8.80933 8.69581 8.61889L17.5679 13.7412L16.9075 14.7928C16.805 14.9523 16.6976 15.1085 16.5855 15.2611L7.70281 10.1327Z" fill="#BDBDBD"/>
<path d="M5.72048 13.289L6.68245 11.7573L15.2595 16.7093C14.7614 17.1483 14.2154 17.5337 13.6317 17.8565L5.72048 13.289Z" fill="#BDBDBD"/>
<path d="M18.5883 12.1166L10.0511 7.18759C10.5181 6.79002 11.0253 6.43868 11.5647 6.14084C11.6142 6.11352 11.6638 6.0867 11.7136 6.06038L19.5503 10.5849L18.5883 12.1166Z" fill="#BDBDBD"/>
</svg>
