<svg width="146" height="48" viewBox="0 0 146 48" fill="none" xmlns="http://www.w3.org/2000/svg">
<path d="M35.128 23.784C35.099 20.561 37.767 18.993 37.889 18.92C36.378 16.717 34.036 16.416 33.213 16.392C31.246 16.185 29.338 17.569 28.336 17.569C27.314 17.569 25.771 16.412 24.108 16.446C21.968 16.479 19.966 17.718 18.868 19.642C16.602 23.565 18.292 29.33 20.463 32.501C21.549 34.054 22.818 35.788 24.479 35.727C26.104 35.66 26.711 34.691 28.672 34.691C30.615 34.691 31.185 35.727 32.879 35.688C34.623 35.66 35.721 34.128 36.769 32.561C38.024 30.781 38.528 29.028 38.548 28.938C38.507 28.924 35.161 27.647 35.128 23.784Z" fill="white"/>
<path d="M31.928 14.306C32.802 13.213 33.4 11.726 33.234 10.217C31.969 10.273 30.387 11.092 29.476 12.161C28.67 13.103 27.95 14.647 28.136 16.099C29.557 16.205 31.016 15.382 31.928 14.306Z" fill="white"/>
<path d="M58.783 35.504H56.512L55.268 31.595H50.944L49.759 35.504H47.548L51.832 22.196H54.478L58.783 35.504ZM54.893 29.955L53.768 26.48C53.649 26.125 53.426 25.289 53.097 23.973H53.057C52.926 24.539 52.715 25.375 52.425 26.48L51.32 29.955H54.893V29.955Z" fill="white"/>
<path d="M69.8 30.588C69.8 32.22 69.359 33.51 68.477 34.457C67.687 35.3 66.706 35.721 65.535 35.721C64.271 35.721 63.363 35.267 62.81 34.359H62.77V39.414H60.638V29.067C60.638 28.041 60.611 26.988 60.559 25.908H62.434L62.553 27.429H62.593C63.304 26.283 64.383 25.711 65.831 25.711C66.963 25.711 67.908 26.158 68.664 27.053C69.422 27.949 69.8 29.127 69.8 30.588ZM67.628 30.666C67.628 29.732 67.418 28.962 66.996 28.356C66.535 27.724 65.916 27.408 65.14 27.408C64.614 27.408 64.136 27.584 63.709 27.931C63.281 28.281 63.001 28.738 62.87 29.304C62.804 29.568 62.771 29.784 62.771 29.954V31.554C62.771 32.252 62.985 32.841 63.413 33.322C63.841 33.803 64.397 34.043 65.081 34.043C65.884 34.043 66.509 33.733 66.956 33.115C67.404 32.496 67.628 31.68 67.628 30.666Z" fill="white"/>
<path d="M80.837 30.588C80.837 32.22 80.396 33.51 79.513 34.457C78.724 35.3 77.743 35.721 76.572 35.721C75.308 35.721 74.4 35.267 73.848 34.359H73.808V39.414H71.676V29.067C71.676 28.041 71.649 26.988 71.597 25.908H73.472L73.591 27.429H73.631C74.341 26.283 75.42 25.711 76.869 25.711C78 25.711 78.945 26.158 79.703 27.053C80.458 27.949 80.837 29.127 80.837 30.588ZM78.665 30.666C78.665 29.732 78.454 28.962 78.032 28.356C77.571 27.724 76.954 27.408 76.177 27.408C75.65 27.408 75.173 27.584 74.745 27.931C74.317 28.281 74.038 28.738 73.907 29.304C73.842 29.568 73.808 29.784 73.808 29.954V31.554C73.808 32.252 74.022 32.841 74.448 33.322C74.876 33.802 75.432 34.043 76.118 34.043C76.921 34.043 77.546 33.733 77.993 33.115C78.441 32.496 78.665 31.68 78.665 30.666Z" fill="white"/>
<path d="M93.177 31.772C93.177 32.904 92.784 33.825 91.995 34.536C91.128 35.313 89.921 35.701 88.37 35.701C86.938 35.701 85.79 35.425 84.921 34.872L85.415 33.095C86.351 33.661 87.378 33.945 88.497 33.945C89.3 33.945 89.925 33.763 90.374 33.401C90.821 33.039 91.044 32.553 91.044 31.947C91.044 31.407 90.86 30.952 90.491 30.583C90.124 30.214 89.511 29.871 88.655 29.554C86.325 28.685 85.161 27.412 85.161 25.738C85.161 24.644 85.569 23.747 86.386 23.049C87.2 22.35 88.286 22.001 89.644 22.001C90.855 22.001 91.861 22.212 92.664 22.633L92.131 24.371C91.381 23.963 90.533 23.759 89.584 23.759C88.834 23.759 88.248 23.944 87.828 24.312C87.473 24.641 87.295 25.042 87.295 25.517C87.295 26.043 87.498 26.478 87.906 26.82C88.261 27.136 88.906 27.478 89.842 27.847C90.987 28.308 91.828 28.847 92.369 29.465C92.908 30.081 93.177 30.852 93.177 31.772Z" fill="white"/>
<path d="M100.226 27.508H97.876V32.167C97.876 33.352 98.29 33.944 99.12 33.944C99.501 33.944 99.817 33.911 100.067 33.845L100.126 35.464C99.706 35.621 99.153 35.7 98.468 35.7C97.626 35.7 96.968 35.443 96.493 34.93C96.02 34.416 95.782 33.554 95.782 32.343V27.506H94.382V25.906H95.782V24.149L97.876 23.517V25.906H100.226V27.508Z" fill="white"/>
<path d="M110.829 30.627C110.829 32.102 110.407 33.313 109.565 34.26C108.682 35.235 107.51 35.721 106.049 35.721C104.641 35.721 103.52 35.254 102.684 34.32C101.848 33.386 101.43 32.207 101.43 30.786C101.43 29.299 101.86 28.081 102.723 27.134C103.584 26.186 104.746 25.712 106.207 25.712C107.615 25.712 108.748 26.179 109.603 27.114C110.421 28.021 110.829 29.192 110.829 30.627ZM108.617 30.696C108.617 29.811 108.428 29.052 108.045 28.419C107.598 27.653 106.959 27.271 106.131 27.271C105.274 27.271 104.623 27.654 104.176 28.419C103.793 29.053 103.604 29.824 103.604 30.736C103.604 31.621 103.793 32.38 104.176 33.012C104.637 33.778 105.281 34.16 106.112 34.16C106.926 34.16 107.565 33.77 108.026 32.992C108.419 32.347 108.617 31.58 108.617 30.696Z" fill="white"/>
<path d="M117.759 27.783C117.548 27.744 117.323 27.724 117.087 27.724C116.337 27.724 115.757 28.007 115.349 28.574C114.994 29.074 114.816 29.706 114.816 30.469V35.504H112.685L112.705 28.93C112.705 27.824 112.678 26.817 112.625 25.909H114.482L114.56 27.745H114.619C114.844 27.114 115.199 26.606 115.685 26.225C116.16 25.882 116.673 25.711 117.226 25.711C117.423 25.711 117.601 25.725 117.759 25.75V27.783Z" fill="white"/>
<path d="M127.294 30.252C127.294 30.634 127.269 30.956 127.216 31.219H120.82C120.845 32.167 121.154 32.892 121.748 33.392C122.287 33.839 122.984 34.063 123.84 34.063C124.787 34.063 125.651 33.912 126.428 33.609L126.762 35.089C125.854 35.485 124.782 35.682 123.545 35.682C122.057 35.682 120.889 35.244 120.039 34.369C119.191 33.494 118.766 32.319 118.766 30.845C118.766 29.398 119.161 28.193 119.952 27.232C120.78 26.206 121.899 25.693 123.307 25.693C124.69 25.693 125.737 26.206 126.448 27.232C127.011 28.047 127.294 29.055 127.294 30.252ZM125.261 29.699C125.275 29.067 125.136 28.521 124.847 28.06C124.478 27.467 123.911 27.171 123.148 27.171C122.451 27.171 121.884 27.46 121.451 28.04C121.096 28.501 120.885 29.054 120.82 29.698H125.261V29.699Z" fill="white"/>
<path d="M54.188 14.009C54.188 15.186 53.835 16.072 53.13 16.667C52.477 17.216 51.549 17.491 50.347 17.491C49.751 17.491 49.241 17.465 48.814 17.413V10.982C49.371 10.892 49.971 10.846 50.619 10.846C51.764 10.846 52.627 11.095 53.209 11.593C53.861 12.156 54.188 12.961 54.188 14.009ZM53.083 14.038C53.083 13.275 52.881 12.69 52.477 12.282C52.073 11.875 51.483 11.671 50.706 11.671C50.376 11.671 50.095 11.693 49.862 11.739V16.628C49.991 16.648 50.227 16.657 50.57 16.657C51.372 16.657 51.991 16.434 52.427 15.988C52.863 15.542 53.083 14.892 53.083 14.038Z" fill="white"/>
<path d="M60.047 15.037C60.047 15.762 59.84 16.356 59.426 16.822C58.992 17.301 58.417 17.54 57.699 17.54C57.007 17.54 56.456 17.311 56.045 16.851C55.635 16.392 55.43 15.813 55.43 15.115C55.43 14.385 55.641 13.786 56.065 13.321C56.489 12.856 57.059 12.623 57.777 12.623C58.469 12.623 59.025 12.852 59.446 13.311C59.846 13.757 60.047 14.333 60.047 15.037ZM58.96 15.071C58.96 14.636 58.866 14.263 58.679 13.952C58.459 13.576 58.146 13.388 57.739 13.388C57.318 13.388 56.998 13.576 56.778 13.952C56.59 14.263 56.497 14.642 56.497 15.09C56.497 15.525 56.591 15.898 56.778 16.209C57.005 16.585 57.321 16.773 57.729 16.773C58.129 16.773 58.443 16.582 58.669 16.199C58.863 15.882 58.96 15.506 58.96 15.071Z" fill="white"/>
<path d="M67.903 12.719L66.428 17.433H65.468L64.857 15.386C64.702 14.875 64.576 14.367 64.478 13.863H64.459C64.368 14.381 64.242 14.888 64.08 15.386L63.431 17.433H62.46L61.073 12.719H62.15L62.683 14.96C62.812 15.49 62.918 15.995 63.003 16.473H63.022C63.1 16.079 63.229 15.577 63.411 14.97L64.08 12.72H64.934L65.575 14.922C65.73 15.459 65.856 15.976 65.953 16.474H65.982C66.053 15.989 66.16 15.472 66.302 14.922L66.874 12.72H67.903V12.719Z" fill="white"/>
<path d="M73.336 17.433H72.288V14.733C72.288 13.901 71.972 13.485 71.338 13.485C71.027 13.485 70.776 13.599 70.581 13.828C70.388 14.057 70.29 14.327 70.29 14.636V17.432H69.242V14.066C69.242 13.652 69.229 13.203 69.204 12.717H70.125L70.174 13.454H70.203C70.325 13.225 70.507 13.036 70.746 12.885C71.03 12.709 71.348 12.62 71.696 12.62C72.136 12.62 72.502 12.762 72.793 13.047C73.155 13.396 73.336 13.917 73.336 14.609V17.433V17.433Z" fill="white"/>
<path d="M76.226 17.433H75.179V10.556H76.226V17.433Z" fill="white"/>
<path d="M82.396 15.037C82.396 15.762 82.189 16.356 81.775 16.822C81.341 17.301 80.765 17.54 80.048 17.54C79.355 17.54 78.804 17.311 78.394 16.851C77.984 16.392 77.779 15.813 77.779 15.115C77.779 14.385 77.99 13.786 78.414 13.321C78.838 12.856 79.408 12.623 80.125 12.623C80.818 12.623 81.373 12.852 81.795 13.311C82.195 13.757 82.396 14.333 82.396 15.037ZM81.308 15.071C81.308 14.636 81.214 14.263 81.027 13.952C80.808 13.576 80.494 13.388 80.088 13.388C79.666 13.388 79.346 13.576 79.127 13.952C78.939 14.263 78.846 14.642 78.846 15.09C78.846 15.525 78.94 15.898 79.127 16.209C79.354 16.585 79.67 16.773 80.078 16.773C80.478 16.773 80.791 16.582 81.017 16.199C81.212 15.882 81.308 15.506 81.308 15.071Z" fill="white"/>
<path d="M87.468 17.433H86.527L86.449 16.89H86.42C86.098 17.323 85.639 17.54 85.043 17.54C84.598 17.54 84.238 17.397 83.967 17.113C83.721 16.855 83.598 16.534 83.598 16.153C83.598 15.577 83.838 15.138 84.321 14.834C84.803 14.53 85.481 14.381 86.354 14.388V14.3C86.354 13.679 86.028 13.369 85.375 13.369C84.91 13.369 84.5 13.486 84.146 13.718L83.933 13.03C84.371 12.759 84.912 12.623 85.55 12.623C86.782 12.623 87.4 13.273 87.4 14.573V16.309C87.4 16.78 87.423 17.155 87.468 17.433ZM86.38 15.813V15.086C85.224 15.066 84.646 15.383 84.646 16.036C84.646 16.282 84.712 16.466 84.847 16.589C84.982 16.712 85.154 16.773 85.359 16.773C85.589 16.773 85.804 16.7 86 16.555C86.197 16.409 86.318 16.224 86.363 15.997C86.374 15.946 86.38 15.884 86.38 15.813Z" fill="white"/>
<path d="M93.423 17.433H92.493L92.444 16.676H92.415C92.118 17.252 91.612 17.54 90.901 17.54C90.333 17.54 89.86 17.317 89.485 16.871C89.11 16.425 88.923 15.846 88.923 15.135C88.923 14.372 89.126 13.754 89.534 13.282C89.929 12.842 90.413 12.622 90.989 12.622C91.622 12.622 92.065 12.835 92.317 13.262H92.337V10.556H93.386V16.163C93.386 16.622 93.398 17.045 93.423 17.433ZM92.337 15.445V14.659C92.337 14.523 92.327 14.413 92.308 14.329C92.249 14.077 92.122 13.865 91.929 13.694C91.734 13.523 91.499 13.437 91.228 13.437C90.837 13.437 90.531 13.592 90.306 13.903C90.083 14.214 89.97 14.611 89.97 15.096C89.97 15.562 90.077 15.94 90.292 16.231C90.519 16.541 90.825 16.696 91.208 16.696C91.552 16.696 91.827 16.567 92.036 16.308C92.238 16.069 92.337 15.781 92.337 15.445Z" fill="white"/>
<path d="M102.386 15.037C102.386 15.762 102.179 16.356 101.765 16.822C101.331 17.301 100.757 17.54 100.038 17.54C99.347 17.54 98.796 17.311 98.384 16.851C97.974 16.392 97.769 15.813 97.769 15.115C97.769 14.385 97.98 13.786 98.404 13.321C98.828 12.856 99.398 12.623 100.117 12.623C100.808 12.623 101.365 12.852 101.785 13.311C102.185 13.757 102.386 14.333 102.386 15.037ZM101.3 15.071C101.3 14.636 101.206 14.263 101.019 13.952C100.798 13.576 100.486 13.388 100.078 13.388C99.658 13.388 99.338 13.576 99.117 13.952C98.929 14.263 98.836 14.642 98.836 15.09C98.836 15.525 98.93 15.898 99.117 16.209C99.344 16.585 99.66 16.773 100.068 16.773C100.468 16.773 100.783 16.582 101.009 16.199C101.202 15.882 101.3 15.506 101.3 15.071Z" fill="white"/>
<path d="M108.021 17.433H106.974V14.733C106.974 13.901 106.658 13.485 106.023 13.485C105.712 13.485 105.461 13.599 105.267 13.828C105.073 14.057 104.976 14.327 104.976 14.636V17.432H103.927V14.066C103.927 13.652 103.915 13.203 103.89 12.717H104.81L104.859 13.454H104.888C105.011 13.225 105.193 13.036 105.431 12.885C105.716 12.709 106.033 12.62 106.382 12.62C106.821 12.62 107.187 12.762 107.478 13.047C107.841 13.396 108.021 13.917 108.021 14.609V17.433V17.433Z" fill="white"/>
<path d="M115.074 13.504H113.92V15.794C113.92 16.376 114.125 16.667 114.531 16.667C114.719 16.667 114.875 16.651 114.998 16.618L115.025 17.413C114.818 17.491 114.546 17.53 114.211 17.53C113.797 17.53 113.475 17.404 113.242 17.152C113.008 16.9 112.892 16.476 112.892 15.881V13.504H112.203V12.719H112.892V11.855L113.919 11.545V12.718H115.073V13.504H115.074Z" fill="white"/>
<path d="M120.622 17.433H119.573V14.753C119.573 13.908 119.257 13.485 118.624 13.485C118.138 13.485 117.806 13.73 117.624 14.22C117.593 14.323 117.575 14.449 117.575 14.597V17.432H116.528V10.556H117.575V13.397H117.595C117.925 12.88 118.398 12.622 119.011 12.622C119.445 12.622 119.804 12.764 120.089 13.049C120.444 13.404 120.622 13.932 120.622 14.63V17.433V17.433Z" fill="white"/>
<path d="M126.345 14.853C126.345 15.041 126.331 15.199 126.306 15.328H123.163C123.177 15.794 123.327 16.149 123.618 16.395C123.884 16.615 124.227 16.725 124.647 16.725C125.112 16.725 125.536 16.651 125.918 16.502L126.082 17.23C125.635 17.424 125.109 17.521 124.5 17.521C123.77 17.521 123.195 17.306 122.779 16.876C122.361 16.446 122.154 15.869 122.154 15.145C122.154 14.434 122.347 13.842 122.736 13.37C123.142 12.866 123.691 12.614 124.384 12.614C125.062 12.614 125.577 12.866 125.925 13.37C126.206 13.77 126.345 14.265 126.345 14.853ZM125.345 14.582C125.353 14.271 125.284 14.003 125.142 13.777C124.96 13.486 124.683 13.34 124.308 13.34C123.966 13.34 123.687 13.482 123.474 13.767C123.3 13.994 123.197 14.265 123.163 14.582H125.345Z" fill="white"/>
</svg>
