<svg width="146" height="48" viewBox="0 0 146 48" fill="none" xmlns="http://www.w3.org/2000/svg">
<path d="M77.2257 16.5627C76.2975 16.5627 75.515 16.2381 74.8961 15.5991C74.2824 14.9779 73.9398 14.1216 73.9551 13.2474C73.9551 12.3145 74.2722 11.5246 74.8961 10.8984C75.5124 10.2594 76.2949 9.93472 77.2231 9.93472C78.1411 9.93472 78.9236 10.2594 79.5527 10.8984C80.1766 11.5451 80.4937 12.3349 80.4937 13.2474C80.4834 14.183 80.1664 14.9728 79.5527 15.5965C78.9364 16.2406 78.1539 16.5627 77.2257 16.5627ZM49.6063 16.5627C48.6985 16.5627 47.9109 16.2432 47.2665 15.6118C46.6272 14.983 46.3025 14.1881 46.3025 13.25C46.3025 12.3119 46.6272 11.517 47.2665 10.8882C47.8981 10.2568 48.6857 9.93728 49.6063 9.93728C50.0563 9.93728 50.4936 10.0267 50.9129 10.2082C51.3246 10.3846 51.6596 10.6249 51.9077 10.9188L51.969 10.993L51.2761 11.6729L51.2045 11.5885C50.8132 11.1233 50.289 10.8958 49.596 10.8958C48.9772 10.8958 48.4377 11.1156 47.9927 11.5502C47.5452 11.9873 47.3176 12.5598 47.3176 13.2526C47.3176 13.9453 47.5452 14.5178 47.9927 14.9549C48.4377 15.3895 48.9772 15.6093 49.596 15.6093C50.2558 15.6093 50.8107 15.3895 51.2428 14.9549C51.4985 14.6993 51.6571 14.3415 51.7133 13.889H49.4912V12.933H52.6671L52.6799 13.0199C52.7029 13.181 52.7259 13.3471 52.7259 13.5005C52.7259 14.3824 52.46 15.0955 51.9332 15.6221C51.3349 16.2458 50.5524 16.5627 49.6063 16.5627ZM86.329 16.4272H85.3496L82.3501 11.6294L82.3757 12.4934V16.4247H81.3963V10.0728H82.5138L82.5445 10.1213L85.365 14.6405L85.3394 13.7791V10.0728H86.329V16.4272V16.4272ZM69.8663 16.4272H68.8741V11.0287H67.1532V10.0728H71.5847V11.0287H69.8637V16.4272H69.8663ZM66.3451 16.4272H65.3555V10.0728H66.3451V16.4272ZM60.7834 16.4272H59.7938V11.0287H58.0729V10.0728H62.5044V11.0287H60.7834V16.4272ZM57.4464 16.417H53.6516V10.0728H57.4464V11.0287H54.6438V12.772H57.1728V13.7178H54.6438V15.461H57.4464V16.417ZM75.6224 14.9421C76.0647 15.3844 76.6017 15.6067 77.2257 15.6067C77.8675 15.6067 78.3917 15.3895 78.829 14.9421C79.2637 14.5076 79.4836 13.9376 79.4836 13.25C79.4836 12.5624 79.2637 11.9898 78.8315 11.5579C78.3892 11.1156 77.8496 10.8933 77.2282 10.8933C76.5864 10.8933 76.0622 11.1105 75.6275 11.5579C75.1928 11.9924 74.9729 12.5624 74.9729 13.25C74.9729 13.9376 75.1902 14.5102 75.6224 14.9421Z" fill="white"/>
<path fill-rule="evenodd" clip-rule="evenodd" d="M73.8631 25.2995C71.4466 25.2995 69.4879 27.1322 69.4879 29.6602C69.4879 32.1652 71.4594 34.021 73.8631 34.021C76.2796 34.021 78.2383 32.1754 78.2383 29.6602C78.2383 27.1322 76.2796 25.2995 73.8631 25.2995ZM73.8631 32.293C72.5411 32.293 71.4031 31.199 71.4031 29.65C71.4031 28.078 72.5436 27.007 73.8631 27.007C75.1851 27.007 76.3231 28.078 76.3231 29.65C76.3256 31.2092 75.1851 32.293 73.8631 32.293ZM64.3174 25.2995C61.9009 25.2995 59.9421 27.1322 59.9421 29.6602C59.9421 32.1652 61.9137 34.021 64.3174 34.021C66.7338 34.021 68.6926 32.1754 68.6926 29.6602C68.6926 27.1322 66.7313 25.2995 64.3174 25.2995ZM64.3174 32.293C62.9953 32.293 61.8574 31.199 61.8574 29.65C61.8574 28.078 62.9979 27.007 64.3174 27.007C65.6394 27.007 66.7773 28.078 66.7773 29.65C66.7773 31.2092 65.6394 32.293 64.3174 32.293ZM52.9586 26.6312V28.4767H57.3901C57.2546 29.512 56.9119 30.2763 56.3877 30.8003C55.7382 31.4495 54.7358 32.155 52.9689 32.155C50.2455 32.155 48.1154 29.9567 48.1154 27.2345C48.1154 24.5122 50.2455 22.314 52.9689 22.314C54.4392 22.314 55.5106 22.8942 56.3059 23.6355L57.6151 22.3267C56.5105 21.2685 55.0401 20.4582 52.9791 20.4582C49.2431 20.4582 46.1081 23.5 46.1081 27.2243C46.1081 30.9587 49.2406 33.9903 52.9791 33.9903C54.9966 33.9903 56.5105 33.3308 57.7072 32.0885C58.9269 30.8693 59.3131 29.149 59.3131 27.761C59.3131 27.3291 59.2798 26.9405 59.2108 26.6108H52.9561C52.9586 26.6082 52.9586 26.6312 52.9586 26.6312ZM99.419 28.0678C99.0533 27.0888 97.9486 25.2893 95.683 25.2893C93.4379 25.2893 91.5712 27.0556 91.5712 29.65C91.5712 32.0988 93.4174 34.0107 95.9004 34.0107C97.8949 34.0107 99.0559 32.7915 99.5341 32.0758L98.0535 31.084C97.5625 31.8125 96.8798 32.2905 95.9106 32.2905C94.9312 32.2905 94.2459 31.8457 93.7908 30.969L99.6236 28.5534C99.6236 28.556 99.419 28.0678 99.419 28.0678ZM93.4711 29.5248C93.4251 27.8403 94.7804 26.984 95.7495 26.984C96.5141 26.984 97.1508 27.3597 97.3682 27.9067L93.4711 29.5248ZM88.7328 33.75H90.6481V20.9388H88.7328V33.75ZM85.5875 26.2683H85.5185C85.0863 25.7545 84.2655 25.2893 83.2171 25.2893C81.0409 25.2893 79.0362 27.2038 79.0362 29.6628C79.0362 32.1115 81.0307 34.0031 83.2171 34.0031C84.2527 34.0031 85.0863 33.5353 85.5185 33.0113H85.5875V33.6375C85.5875 35.3016 84.6976 36.1988 83.2631 36.1988C82.0894 36.1988 81.3606 35.3552 81.064 34.6498L79.3993 35.345C79.8775 36.4953 81.1535 37.919 83.2605 37.919C85.5057 37.919 87.4082 36.5975 87.4082 33.3743V25.55H85.5977V26.2683C85.6003 26.2683 85.5875 26.2683 85.5875 26.2683ZM83.3884 32.293C82.0664 32.293 80.9617 31.1888 80.9617 29.6628C80.9617 28.124 82.0664 27.0095 83.3884 27.0095C84.6976 27.0095 85.7128 28.1368 85.7128 29.6628C85.7256 31.1888 84.7002 32.293 83.3884 32.293ZM108.387 20.9388H103.807V33.75H105.722V28.8985H108.389C110.509 28.8985 112.593 27.3623 112.593 24.9238C112.593 22.4852 110.517 20.9388 108.387 20.9388ZM108.443 27.1092H105.72V22.7127H108.443C109.878 22.7127 110.688 23.8962 110.688 24.911C110.688 25.9155 109.867 27.1092 108.443 27.1092ZM120.27 25.2765C118.879 25.2765 117.444 25.8925 116.851 27.2345L118.549 27.94C118.914 27.2345 119.584 26.9942 120.293 26.9942C121.285 26.9942 122.287 27.5872 122.31 28.6455V28.7809C121.968 28.5867 121.216 28.2902 120.316 28.2902C118.482 28.2902 116.623 29.2921 116.623 31.1709C116.623 32.8912 118.127 33.9954 119.802 33.9954C121.088 33.9954 121.796 33.4152 122.239 32.7429H122.308V33.7347H124.154V28.8269C124.154 26.5418 122.456 25.2765 120.27 25.2765ZM120.029 32.293C119.403 32.293 118.526 31.9863 118.526 31.199C118.526 30.2072 119.62 29.8315 120.554 29.8315C121.397 29.8315 121.796 30.013 122.298 30.2635C122.159 31.4137 121.188 32.2828 120.029 32.293ZM130.889 25.55L128.69 31.107H128.621L126.343 25.55H124.282L127.701 33.318L125.752 37.6353H127.747L133.007 25.55H130.889ZM113.649 33.75H115.565V20.9388H113.649V33.75Z" fill="white"/>
<path fill-rule="evenodd" clip-rule="evenodd" d="M14.699 10.722C14.4024 11.0415 14.231 11.5297 14.231 12.1688V34.8338C14.231 35.4728 14.4024 35.961 14.7092 36.2678L14.7885 36.3368L27.4923 23.638V23.3543L14.7782 10.653L14.699 10.722Z" fill="url(#paint0_linear)"/>
<path fill-rule="evenodd" clip-rule="evenodd" d="M31.7192 27.8837L27.482 23.6483V23.3517L31.7192 19.1163L31.8112 19.1725L36.8232 22.02C38.2577 22.8277 38.2577 24.162 36.8232 24.98L31.8112 27.8275L31.7192 27.8837Z" fill="url(#paint1_linear)"/>
<path fill-rule="evenodd" clip-rule="evenodd" d="M31.8113 27.8275L27.4821 23.5L14.699 36.278C15.167 36.779 15.952 36.8352 16.8291 36.347L31.8113 27.8275Z" fill="url(#paint2_linear)"/>
<path fill-rule="evenodd" clip-rule="evenodd" d="M31.8113 19.1725L16.8291 10.6658C15.952 10.1648 15.1644 10.2338 14.699 10.7348L27.4821 23.5L31.8113 19.1725Z" fill="url(#paint3_linear)"/>
<path opacity="0.2" fill-rule="evenodd" clip-rule="evenodd" d="M31.7192 27.7355L16.8393 36.186C16.0082 36.664 15.2667 36.6307 14.7885 36.1962L14.7092 36.2754L14.7885 36.3445C15.2667 36.7764 16.0082 36.8122 16.8393 36.3342L31.8215 27.8275L31.7192 27.7355Z" fill="black"/>
<path opacity="0.12" fill-rule="evenodd" clip-rule="evenodd" d="M36.8232 24.8317L31.7064 27.7355L31.7985 27.8275L36.8104 24.98C37.529 24.571 37.8819 24.0342 37.8819 23.5C37.8384 23.9908 37.4727 24.456 36.8232 24.8317Z" fill="black"/>
<path opacity="0.25" fill-rule="evenodd" clip-rule="evenodd" d="M16.8291 10.814L36.8232 22.1683C37.4727 22.5338 37.8384 23.0118 37.8946 23.5C37.8946 22.9658 37.5417 22.429 36.8232 22.02L16.8291 10.6658C15.3945 9.84527 14.231 10.5303 14.231 12.1688V12.317C14.231 10.676 15.3945 10.0037 16.8291 10.814Z" fill="white"/>
<defs>
<linearGradient id="paint0_linear" x1="26.3527" y1="11.9242" x2="6.00455" y2="17.3482" gradientUnits="userSpaceOnUse">
<stop stop-color="#00A0FF"/>
<stop offset="0.00657" stop-color="#00A1FF"/>
<stop offset="0.2601" stop-color="#00BEFF"/>
<stop offset="0.5122" stop-color="#00D2FF"/>
<stop offset="0.7604" stop-color="#00DFFF"/>
<stop offset="1" stop-color="#00E3FF"/>
</linearGradient>
<linearGradient id="paint1_linear" x1="38.694" y1="23.5" x2="13.8823" y2="23.5" gradientUnits="userSpaceOnUse">
<stop stop-color="#FFE000"/>
<stop offset="0.4087" stop-color="#FFBD00"/>
<stop offset="0.7754" stop-color="#FFA500"/>
<stop offset="1" stop-color="#FF9C00"/>
</linearGradient>
<linearGradient id="paint2_linear" x1="29.4572" y1="25.8548" x2="13.1305" y2="53.3449" gradientUnits="userSpaceOnUse">
<stop stop-color="#FF3A44"/>
<stop offset="1" stop-color="#C31162"/>
</linearGradient>
<linearGradient id="paint3_linear" x1="11.4801" y1="3.18326" x2="18.7641" y2="15.4608" gradientUnits="userSpaceOnUse">
<stop stop-color="#32A071"/>
<stop offset="0.0685" stop-color="#2DA771"/>
<stop offset="0.4762" stop-color="#15CF74"/>
<stop offset="0.8009" stop-color="#06E775"/>
<stop offset="1" stop-color="#00F076"/>
</linearGradient>
</defs>
</svg>
