<svg width="20" height="20" viewBox="0 0 20 20" fill="none" xmlns="http://www.w3.org/2000/svg">
<path d="M19.995 20L20 19.9991V12.6641C20 9.07584 19.2275 6.31166 15.0325 6.31166C13.0159 6.31166 11.6625 7.41834 11.11 8.4675H11.0517V6.64666H7.07416V19.9991H11.2158V13.3875C11.2158 11.6467 11.5458 9.96334 13.7016 9.96334C15.8259 9.96334 15.8575 11.95 15.8575 13.4991V20H19.995Z" fill="#FFCEA2"/>
<path d="M0.330009 6.64749H4.47667V20H0.330009V6.64749Z" fill="#FFCEA2"/>
<path d="M2.40166 0C1.07583 0 0 1.07583 0 2.40166C0 3.7275 1.07583 4.82584 2.40166 4.82584C3.7275 4.82584 4.80334 3.7275 4.80334 2.40166C4.8025 1.07583 3.72666 0 2.40166 0Z" fill="#FFCEA2"/>
</svg>
