<svg width="20" height="20" viewBox="0 0 20 20" fill="none" xmlns="http://www.w3.org/2000/svg">
<path d="M19.015 3.19263C18.9164 3.05124 18.7826 2.94989 18.6351 2.89344C15.0618 1.52486 2.24553 1.83638 1.06025 3.09816C0.99966 3.16264 0.937235 3.25493 0.89687 3.35423C0.237653 4.97183 0 8.14827 0 9.99979C0 11.8605 0.246727 15.0863 0.899842 16.6519C0.939738 16.7476 0.99966 16.8367 1.06044 16.9014C2.24898 18.1661 15.0652 18.4734 18.6351 17.1062C18.785 17.0487 18.9162 16.9472 19.0127 16.8103C19.5208 16.088 20 12.7873 20 9.99979C20 7.40207 19.5472 3.95726 19.015 3.19263ZM17.6546 14.4575C18.1969 14.9721 17.8327 15.8941 17.0923 15.8941C16.8909 15.8941 16.689 15.8196 16.5304 15.6692L11.7601 11.1423L10.5657 12.29C10.2487 12.5947 9.75123 12.5947 9.43419 12.29L8.23982 11.1423L3.46943 15.6692C3.31091 15.8196 3.10904 15.8942 2.90757 15.8942C2.167 15.8942 1.80332 14.9719 2.34536 14.4576L7.04291 9.99983L2.3454 5.54208C2.01458 5.22814 1.99803 4.7024 2.30843 4.36781C2.6188 4.03326 3.13866 4.01648 3.46943 4.33042C9.67723 10.2213 8.4134 9.01726 10 10.5419C11.5883 9.01556 10.3273 10.2169 16.5306 4.33042C16.8613 4.01648 17.3812 4.03326 17.6916 4.36781C18.002 4.7024 17.9853 5.22814 17.6546 5.54208L12.957 9.99979L17.6546 14.4575Z" fill="#FFCEA2"/>
</svg>
