<svg width="39" height="32" viewBox="0 0 39 32" fill="none" xmlns="http://www.w3.org/2000/svg">
<path fill-rule="evenodd" clip-rule="evenodd" d="M37.0618 17.9814C36.8838 17.6991 36.6909 17.4318 36.483 17.1796C35.1443 15.5554 33.9902 13.5063 34.5467 11.4764L36.0327 6.05574C36.7755 3.34648 34.7366 0.67334 31.9273 0.67334H31.5518C29.8098 0.67334 28.2436 1.73467 27.598 3.3526L23.4873 13.6544C22.4752 16.0583 21.8203 17.8612 21.5226 19.0632C21.2249 20.2651 21.0761 21.4671 21.0761 22.669C21.0761 25.1931 21.8947 27.2665 23.532 28.8891C25.1693 30.5117 27.2382 31.323 29.7387 31.323C32.2393 31.323 34.2933 30.5268 35.9008 28.9342C37.5083 27.3416 38.3121 25.2532 38.3121 22.669C38.3121 20.8661 37.8953 19.3036 37.0618 17.9814ZM15.9857 17.9814C15.8077 17.6991 15.6148 17.4318 15.4069 17.1796C14.0683 15.5555 12.9141 13.5063 13.4706 11.4765L14.9567 6.05577C15.6994 3.34651 13.6605 0.673369 10.8512 0.673369H10.4757C8.73369 0.673369 7.16749 1.7347 6.5219 3.35263L2.41125 13.6544C1.39912 16.0583 0.744215 17.8612 0.446528 19.0632C0.148841 20.2651 0 21.4671 0 22.669C0 25.1931 0.818627 27.2665 2.45591 28.8891C4.09318 30.5118 6.16208 31.3231 8.66265 31.3231C11.1632 31.3231 13.2172 30.5268 14.8247 28.9342C16.4322 27.3416 17.236 25.2532 17.236 22.669C17.236 20.8661 16.8192 19.3036 15.9857 17.9814Z" fill="#FFCEA2"/>
</svg>
