<svg width="20" height="20" viewBox="0 0 20 20" fill="none" xmlns="http://www.w3.org/2000/svg">
<path fill-rule="evenodd" clip-rule="evenodd" d="M8.34499 11.0353C8.25206 10.8879 8.15134 10.7484 8.04281 10.6167C7.34401 9.76885 6.74152 8.69912 7.03201 7.63952L7.80779 4.80976C8.19552 3.39545 7.13112 2 5.66464 2H5.46859C4.55922 2 3.74162 2.55404 3.40461 3.39865L1.25874 8.77646C0.730378 10.0314 0.388499 10.9725 0.233099 11.6C0.077699 12.2274 0 12.8549 0 13.4824C0 14.8 0.427348 15.8823 1.28205 16.7294C2.13675 17.5764 3.21677 18 4.52215 18C5.82752 18 6.89975 17.5843 7.7389 16.7529C8.5781 15.9216 8.99765 14.8314 8.99765 13.4824C8.99765 12.5412 8.7801 11.7255 8.34499 11.0353ZM19.3473 11.0353C19.2544 10.8879 19.1536 10.7484 19.0452 10.6167C18.3464 9.76885 17.7438 8.69912 18.0343 7.63952L18.8101 4.80976C19.1978 3.39545 18.1335 2 16.667 2H16.4709C15.5616 2 14.744 2.55404 14.4069 3.39865L12.2611 8.77646C11.7327 10.0314 11.3908 10.9725 11.2354 11.6C11.08 12.2274 11.0023 12.8549 11.0023 13.4824C11.0023 14.8 11.4297 15.8823 12.2844 16.7294C13.1391 17.5764 14.2191 18 15.5244 18C16.8298 18 17.9021 17.5843 18.7412 16.7529C19.5804 15.9216 20 14.8314 20 13.4824C20 12.5412 19.7824 11.7255 19.3473 11.0353Z" fill="#FFCEA2"/>
</svg>
