<svg width="20" height="20" viewBox="0 0 20 20" fill="none" xmlns="http://www.w3.org/2000/svg">
<path d="M15.4787 11.958C14.5593 11.958 13.6939 11.5738 12.9151 10.9493L13.1044 10.0633L13.1098 10.0313C13.2828 9.09188 13.8183 7.51201 15.4787 7.51201C16.7226 7.51201 17.7339 8.5101 17.7339 9.73771C17.7339 10.9653 16.7226 11.958 15.4787 11.958ZM15.4787 5.25962C13.3586 5.25962 11.7199 6.61533 11.0492 8.85169C10.0324 7.34121 9.25909 5.53183 8.81018 4.00534H6.52786V9.86046C6.52786 11.0187 5.57599 11.958 4.40238 11.958C3.22878 11.958 2.27691 11.0187 2.27691 9.86046V4H0V9.85513C0 12.2516 1.97404 14.2212 4.40238 14.2212C6.83072 14.2212 8.80474 12.2516 8.80474 9.85513V8.87305C9.24822 9.78574 9.78911 10.7091 10.4489 11.5204L9.05357 18H11.3845L12.3959 13.3031C13.2828 13.8635 14.2996 14.2158 15.4678 14.2158C17.9665 14.2158 20 12.1982 20 9.72703C20.0054 7.26649 17.9773 5.25962 15.4787 5.25962Z" fill="#FFCEA2"/>
</svg>
